<svg width="129" height="129" viewBox="0 0 129 129" fill="none" xmlns="http://www.w3.org/2000/svg">
<path d="M10.4142 64.5L64.5 10.4142L118.586 64.5L64.5 118.586L10.4142 64.5Z" stroke="white" stroke-width="2"/>
<path d="M62.4375 17.0625L63.8125 15.6875L64.1661 16.0411L64.5 15.7071L64.834 16.0411L65.1875 15.6875L66.5625 17.0625L66.209 17.4161L67.584 18.7911L67.9375 18.4375L69.3125 19.8125L68.959 20.1661L70.334 21.5411L70.6875 21.1875L72.0625 22.5625L71.709 22.9161L73.084 24.2911L73.4375 23.9375L74.8125 25.3125L74.459 25.6661L75.834 27.0411L76.1875 26.6875L77.5625 28.0625L77.209 28.4161L78.584 29.7911L78.9375 29.4375L80.3125 30.8125L79.959 31.1661L81.334 32.5411L81.6875 32.1875L83.0625 33.5625L82.709 33.9161L84.084 35.2911L84.4375 34.9375L85.8125 36.3125L85.459 36.6661L86.8339 38.0411L87.1875 37.6875L88.5625 39.0625L88.2089 39.4161L89.5839 40.7911L89.9375 40.4375L91.3125 41.8125L90.9589 42.1661L92.3339 43.5411L92.6875 43.1875L94.0625 44.5625L93.7089 44.9161L95.0839 46.2911L95.4375 45.9375L96.8125 47.3125L96.4589 47.6661L97.8339 49.041L98.1875 48.6875L99.5625 50.0625L99.2089 50.4161L100.584 51.7911L100.938 51.4375L102.312 52.8125L101.959 53.1661L103.334 54.5411L103.688 54.1875L105.062 55.5625L104.709 55.9161L106.084 57.2911L106.438 56.9375L107.812 58.3125L107.459 58.6661L108.834 60.0411L109.188 59.6875L110.562 61.0625L110.209 61.4161L111.584 62.7911L111.938 62.4375L113.312 63.8125L112.959 64.1661L113.293 64.5L112.959 64.834L113.312 65.1875L111.937 66.5625L111.584 66.209L110.209 67.584L110.562 67.9375L109.187 69.3125L108.834 68.959L107.459 70.334L107.812 70.6875L106.437 72.0625L106.084 71.709L104.709 73.084L105.062 73.4375L103.687 74.8125L103.334 74.459L101.959 75.834L102.312 76.1875L100.937 77.5625L100.584 77.209L99.2089 78.584L99.5625 78.9375L98.1875 80.3125L97.8339 79.959L96.4589 81.334L96.8125 81.6875L95.4375 83.0625L95.0839 82.709L93.7089 84.084L94.0625 84.4375L92.6875 85.8125L92.3339 85.459L90.9589 86.8339L91.3125 87.1875L89.9375 88.5625L89.5839 88.2089L88.2089 89.5839L88.5625 89.9375L87.1875 91.3125L86.8339 90.9589L85.4589 92.3339L85.8125 92.6875L84.4375 94.0625L84.0839 93.7089L82.7089 95.0839L83.0625 95.4375L81.6875 96.8125L81.3339 96.4589L79.9589 97.8339L80.3125 98.1875L78.9375 99.5625L78.5839 99.2089L77.2089 100.584L77.5625 100.938L76.1875 102.312L75.8339 101.959L74.4589 103.334L74.8125 103.688L73.4375 105.062L73.0839 104.709L71.7089 106.084L72.0625 106.438L70.6875 107.812L70.3339 107.459L68.9589 108.834L69.3125 109.188L67.9375 110.562L67.5839 110.209L66.2089 111.584L66.5625 111.938L65.1875 113.312L64.8339 112.959L64.5 113.293L64.166 112.959L63.8125 113.312L62.4375 111.937L62.791 111.584L61.416 110.209L61.0625 110.562L59.6875 109.187L60.041 108.834L58.666 107.459L58.3125 107.812L56.9375 106.437L57.291 106.084L55.916 104.709L55.5625 105.062L54.1875 103.687L54.541 103.334L53.166 101.959L52.8125 102.312L51.4375 100.937L51.791 100.584L50.416 99.2089L50.0625 99.5625L48.6875 98.1875L49.041 97.8339L47.666 96.4589L47.3125 96.8125L45.9375 95.4375L46.291 95.0839L44.916 93.7089L44.5625 94.0625L43.1875 92.6875L43.541 92.3339L42.1661 90.9589L41.8125 91.3125L40.4375 89.9375L40.7911 89.5839L39.4161 88.2089L39.0625 88.5625L37.6875 87.1875L38.0411 86.8339L36.6661 85.4589L36.3125 85.8125L34.9375 84.4375L35.2911 84.0839L33.9161 82.7089L33.5625 83.0625L32.1875 81.6875L32.5411 81.3339L31.1661 79.9589L30.8125 80.3125L29.4375 78.9375L29.7911 78.5839L28.4161 77.2089L28.0625 77.5625L26.6875 76.1875L27.0411 75.8339L25.6661 74.4589L25.3125 74.8125L23.9375 73.4375L24.2911 73.0839L22.9161 71.7089L22.5625 72.0625L21.1875 70.6875L21.5411 70.3339L20.1661 68.9589L19.8125 69.3125L18.4375 67.9375L18.7911 67.5839L17.4161 66.2089L17.0625 66.5625L15.6875 65.1875L16.0411 64.8339L15.7071 64.5L16.0411 64.166L15.6875 63.8125L17.0625 62.4375L17.4161 62.791L18.7911 61.416L18.4375 61.0625L19.8125 59.6875L20.1661 60.041L21.5411 58.666L21.1875 58.3125L22.5625 56.9375L22.9161 57.291L24.2911 55.916L23.9375 55.5625L25.3125 54.1875L25.6661 54.541L27.0411 53.166L26.6875 52.8125L28.0625 51.4375L28.4161 51.791L29.7911 50.416L29.4375 50.0625L30.8125 48.6875L31.1661 49.041L32.5411 47.666L32.1875 47.3125L33.5625 45.9375L33.9161 46.291L35.2911 44.916L34.9375 44.5625L36.3125 43.1875L36.6661 43.541L38.0411 42.1661L37.6875 41.8125L39.0625 40.4375L39.4161 40.7911L40.7911 39.4161L40.4375 39.0625L41.8125 37.6875L42.1661 38.0411L43.5411 36.6661L43.1875 36.3125L44.5625 34.9375L44.9161 35.2911L46.2911 33.9161L45.9375 33.5625L47.3125 32.1875L47.6661 32.5411L49.041 31.1661L48.6875 30.8125L50.0625 29.4375L50.4161 29.7911L51.7911 28.4161L51.4375 28.0625L52.8125 26.6875L53.1661 27.0411L54.5411 25.6661L54.1875 25.3125L55.5625 23.9375L55.9161 24.2911L57.2911 22.9161L56.9375 22.5625L58.3125 21.1875L58.6661 21.5411L60.0411 20.1661L59.6875 19.8125L61.0625 18.4375L61.4161 18.7911L62.7911 17.4161L62.4375 17.0625Z" stroke="white" stroke-dasharray="2 2"/>
<path d="M45.0806 19.4194L50.629 13.871L50.9826 14.2245L64.5 0.707107L78.0174 14.2245L78.371 13.871L88.7742 24.2742L88.4206 24.6277L89.8077 26.0148L90.1613 25.6613L101.258 36.7581L100.905 37.1116L109.227 45.4342L109.581 45.0806L115.129 50.629L114.775 50.9826L128.293 64.5L114.775 78.0174L115.129 78.371L104.726 88.7742L104.372 88.4206L102.985 89.8077L103.339 90.1613L92.2419 101.258L91.8884 100.905L83.5658 109.227L83.9194 109.581L78.371 115.129L78.0174 114.775L64.5 128.293L50.9826 114.775L50.629 115.129L40.2258 104.726L40.5794 104.372L39.1923 102.985L38.8387 103.339L27.7419 92.2419L28.0955 91.8884L19.7729 83.5658L19.4194 83.9194L13.871 78.371L14.2245 78.0174L0.707107 64.5L14.2245 50.9826L13.871 50.629L24.2742 40.2258L24.6277 40.5794L26.0148 39.1923L25.6613 38.8387L36.7581 27.7419L37.1116 28.0955L45.4342 19.7729L45.0806 19.4194Z" stroke="white" stroke-dasharray="40 8 12 16 2 15"/>
</svg>
<svg fill="none" viewBox="0 0 129 129" xmlns="http://www.w3.org/2000/svg">
<path d="M10.4142 64.5L64.5 10.4142L118.586 64.5L64.5 118.586L10.4142 64.5Z" stroke="#fff" stroke-width="2"/>
<path d="m62.438 17.062l1.375-1.375 0.3536 0.3536 0.3339-0.334 0.334 0.334 0.3535-0.3536 1.375 1.375-0.3535 0.3536 1.375 1.375 0.3535-0.3536 1.375 1.375-0.3535 0.3536 1.375 1.375 0.3535-0.3536 1.375 1.375-0.3535 0.3536 1.375 1.375 0.3535-0.3536 1.375 1.375-0.3535 0.3536 1.375 1.375 0.3535-0.3536 1.375 1.375-0.3535 0.3536 1.375 1.375 0.3535-0.3536 1.375 1.375-0.3535 0.3536 1.375 1.375 0.3535-0.3536 1.375 1.375-0.3535 0.3536 1.375 1.375 0.3535-0.3536 1.375 1.375-0.3535 0.3536 1.3749 1.375 0.3536-0.3536 1.375 1.375-0.3536 0.3536 1.375 1.375 0.3536-0.3536 1.375 1.375-0.3536 0.3536 1.375 1.375 0.3536-0.3536 1.375 1.375-0.3536 0.3536 1.375 1.375 0.3536-0.3536 1.375 1.375-0.3536 0.3536 1.375 1.3749 0.3536-0.3535 1.375 1.375-0.3536 0.3536 1.3751 1.375 0.354-0.3536 1.374 1.375-0.353 0.3536 1.375 1.375 0.354-0.3536 1.374 1.375-0.353 0.3536 1.375 1.375 0.354-0.3536 1.374 1.375-0.353 0.3536 1.375 1.375 0.354-0.3536 1.374 1.375-0.353 0.3536 1.375 1.375 0.354-0.3536 1.374 1.375-0.353 0.3536 0.334 0.3339-0.334 0.334 0.353 0.3535-1.375 1.375-0.353-0.3535-1.375 1.375 0.353 0.3535-1.375 1.375-0.353-0.3535-1.375 1.375 0.353 0.3535-1.375 1.375-0.353-0.3535-1.375 1.375 0.353 0.3535-1.375 1.375-0.353-0.3535-1.375 1.375 0.353 0.3535-1.375 1.375-0.353-0.3535-1.3751 1.375 0.3536 0.3535-1.375 1.375-0.3536-0.3535-1.375 1.375 0.3536 0.3535-1.375 1.375-0.3536-0.3535-1.375 1.375 0.3536 0.3535-1.375 1.375-0.3536-0.3535-1.375 1.3749 0.3536 0.3536-1.375 1.375-0.3536-0.3536-1.375 1.375 0.3536 0.3536-1.375 1.375-0.3536-0.3536-1.375 1.375 0.3536 0.3536-1.375 1.375-0.3536-0.3536-1.375 1.375 0.3536 0.3536-1.375 1.375-0.3536-0.3536-1.375 1.375 0.3536 0.3536-1.375 1.375-0.3536-0.3536-1.375 1.3751 0.3536 0.354-1.375 1.374-0.3536-0.353-1.375 1.375 0.3536 0.354-1.375 1.374-0.3536-0.353-1.375 1.375 0.3536 0.354-1.375 1.374-0.3536-0.353-1.375 1.375 0.3536 0.354-1.375 1.374-0.3536-0.353-1.375 1.375 0.3536 0.354-1.375 1.374-0.3536-0.353-0.3339 0.334-0.334-0.334-0.3535 0.353-1.375-1.375 0.3535-0.353-1.375-1.375-0.3535 0.353-1.375-1.375 0.3535-0.353-1.375-1.375-0.3535 0.353-1.375-1.375 0.3535-0.353-1.375-1.375-0.3535 0.353-1.375-1.375 0.3535-0.353-1.375-1.375-0.3535 0.353-1.375-1.375 0.3535-0.353-1.375-1.3751-0.3535 0.3536-1.375-1.375 0.3535-0.3536-1.375-1.375-0.3535 0.3536-1.375-1.375 0.3535-0.3536-1.375-1.375-0.3535 0.3536-1.375-1.375 0.3535-0.3536-1.3749-1.375-0.3536 0.3536-1.375-1.375 0.3536-0.3536-1.375-1.375-0.3536 0.3536-1.375-1.375 0.3536-0.3536-1.375-1.375-0.3536 0.3536-1.375-1.375 0.3536-0.3536-1.375-1.375-0.3536 0.3536-1.375-1.375 0.3536-0.3536-1.375-1.375-0.3536 0.3536-1.375-1.375 0.3536-0.3536-1.375-1.375-0.3536 0.3536-1.375-1.375 0.3536-0.3536-1.375-1.375-0.3536 0.3536-1.375-1.375 0.3536-0.3536-1.375-1.375-0.3536 0.3536-1.375-1.375 0.3536-0.3536-1.375-1.375-0.3536 0.3536-1.375-1.375 0.3536-0.3536-1.375-1.375-0.3536 0.3536-1.375-1.375 0.3536-0.3536-0.334-0.3339 0.334-0.334-0.3536-0.3535 1.375-1.375 0.3536 0.3535 1.375-1.375-0.3536-0.3535 1.375-1.375 0.3536 0.3535 1.375-1.375-0.3536-0.3535 1.375-1.375 0.3536 0.3535 1.375-1.375-0.3536-0.3535 1.375-1.375 0.3536 0.3535 1.375-1.375-0.3536-0.3535 1.375-1.375 0.3536 0.3535 1.375-1.375-0.3536-0.3535 1.375-1.375 0.3536 0.3535 1.375-1.375-0.3536-0.3535 1.375-1.375 0.3536 0.3535 1.375-1.375-0.3536-0.3535 1.375-1.375 0.3536 0.3535 1.375-1.3749-0.3536-0.3536 1.375-1.375 0.3536 0.3536 1.375-1.375-0.3536-0.3536 1.375-1.375 0.3536 0.3536 1.375-1.375-0.3536-0.3536 1.375-1.375 0.3536 0.3536 1.375-1.375-0.3536-0.3536 1.375-1.375 0.3536 0.3536 1.3749-1.375-0.3535-0.3536 1.375-1.375 0.3536 0.3536 1.375-1.375-0.3536-0.3536 1.375-1.375 0.3536 0.3536 1.375-1.375-0.3536-0.3536 1.375-1.375 0.3536 0.3536 1.375-1.375-0.3536-0.3536 1.375-1.375 0.3536 0.3536 1.375-1.375-0.3536-0.3536 1.375-1.375 0.3536 0.3536 1.375-1.375-0.3536-0.3536z" stroke="#fff" stroke-dasharray="2 2"/>
<path d="m45.081 19.419l5.5484-5.5484 0.3536 0.3535 13.517-13.517 13.517 13.517 0.3536-0.3535 10.403 10.403-0.3536 0.3535 1.3871 1.3871 0.3536-0.3535 11.097 11.097-0.353 0.3535 8.322 8.3226 0.354-0.3536 5.548 5.5484-0.354 0.3536 13.518 13.517-13.518 13.517 0.354 0.3536-10.403 10.403-0.354-0.3536-1.387 1.3871 0.354 0.3536-11.097 11.097-0.3535-0.353-8.3226 8.322 0.3536 0.354-5.5484 5.548-0.3536-0.354-13.517 13.518-13.517-13.518-0.3536 0.354-10.403-10.403 0.3536-0.354-1.3871-1.387-0.3536 0.354-11.097-11.097 0.3536-0.3535-8.3226-8.3226-0.3535 0.3536-5.5484-5.5484 0.3535-0.3536-13.517-13.517 13.517-13.517-0.3535-0.3536 10.403-10.403 0.3535 0.3536 1.3871-1.3871-0.3535-0.3536 11.097-11.097 0.3535 0.3536 8.3226-8.3226-0.3536-0.3535z" stroke="#fff" stroke-dasharray="40 8 12 16 2 15"/>
</svg>