<svg width="270" height="68" viewBox="0 0 270 68" fill="none" xmlns="http://www.w3.org/2000/svg">
<path d="M118.907 64.1162C118.907 64.1488 118.883 64.165 118.834 64.165C118.788 64.165 118.757 64.1683 118.741 64.1748C118.396 64.4515 117.976 64.6908 117.481 64.8926C116.987 65.0911 116.463 65.1904 115.909 65.1904C115.356 65.1904 114.82 65.0765 114.303 64.8486C113.785 64.6175 113.349 64.3099 112.994 63.9258C112.639 63.5417 112.359 63.0924 112.154 62.5781C111.952 62.0605 111.852 61.5251 111.852 60.9717C111.852 60.4183 111.961 59.8893 112.179 59.3848C112.4 58.877 112.695 58.4391 113.062 58.0713C113.43 57.7002 113.867 57.404 114.371 57.1826C114.876 56.958 115.385 56.8457 115.899 56.8457C116.511 56.8457 117.128 56.9629 117.75 57.1973L117.975 57.2852C118.007 57.2982 118.053 57.2852 118.111 57.2461C118.17 57.207 118.232 57.1875 118.297 57.1875C118.365 57.1875 118.416 57.2184 118.448 57.2803C118.461 57.29 118.466 57.3242 118.463 57.3828C118.456 57.474 118.495 57.6921 118.58 58.0371L118.702 58.5645C118.735 58.7077 118.751 58.7988 118.751 58.8379C118.751 58.8574 118.709 58.8883 118.624 58.9307C118.543 58.9697 118.495 58.9779 118.482 58.9551C118.212 58.4831 117.872 58.1576 117.462 57.9785C117.055 57.7995 116.546 57.71 115.934 57.71C115.325 57.71 114.775 57.8483 114.283 58.125C113.792 58.4017 113.412 58.7874 113.146 59.2822C112.879 59.7738 112.745 60.332 112.745 60.957C112.745 61.3672 112.84 61.7822 113.028 62.2021C113.217 62.6188 113.46 62.985 113.756 63.3008C114.055 63.6165 114.402 63.8753 114.796 64.0771C115.19 64.2757 115.569 64.375 115.934 64.375C116.298 64.375 116.7 64.2839 117.14 64.1016C117.579 63.916 117.853 63.7598 117.96 63.6328V61.6357C117.96 61.3981 117.882 61.2012 117.726 61.0449C117.713 61.0319 117.685 61.0156 117.643 60.9961C117.6 60.9766 117.579 60.9359 117.579 60.874C117.579 60.8122 117.6 60.7812 117.643 60.7812H119.225C119.267 60.7812 119.288 60.8105 119.288 60.8691C119.288 60.9245 119.28 60.9587 119.264 60.9717C119.251 60.9814 119.231 60.9928 119.205 61.0059C119.179 61.0156 119.145 61.0417 119.103 61.084C119.063 61.123 119.021 61.1979 118.976 61.3086C118.93 61.416 118.907 61.5251 118.907 61.6357V64.1162ZM124.742 60.2148C124.98 60.2148 125.177 60.1367 125.333 59.9805C125.346 59.9674 125.362 59.9398 125.382 59.8975C125.401 59.8551 125.442 59.834 125.504 59.834C125.566 59.834 125.597 59.8551 125.597 59.8975V61.3135C125.597 61.3558 125.567 61.377 125.509 61.377C125.453 61.377 125.419 61.3704 125.406 61.3574C125.396 61.3411 125.385 61.32 125.372 61.2939C125.362 61.2679 125.336 61.2354 125.294 61.1963C125.255 61.154 125.18 61.1117 125.069 61.0693C124.962 61.027 124.853 61.0059 124.742 61.0059H121.661V64.209H124.903C125.271 64.209 125.496 64.1781 125.577 64.1162C125.662 64.0511 125.72 63.9941 125.753 63.9453C125.789 63.8965 125.815 63.8721 125.831 63.8721C125.851 63.8721 125.883 63.8802 125.929 63.8965C125.978 63.9128 126.002 63.9274 126.002 63.9404C126.002 63.9535 125.979 64.0169 125.934 64.1309L125.777 64.5264C125.719 64.6761 125.678 64.79 125.655 64.8682C125.636 64.943 125.608 64.987 125.572 65H120.396C120.354 65 120.333 64.9723 120.333 64.917C120.333 64.8584 120.34 64.8242 120.353 64.8145C120.369 64.8014 120.39 64.79 120.416 64.7803C120.442 64.7673 120.475 64.7412 120.514 64.7021C120.556 64.6598 120.6 64.585 120.646 64.4775C120.691 64.3669 120.714 64.2562 120.714 64.1455V57.8564C120.714 57.6188 120.636 57.4219 120.479 57.2656C120.466 57.2526 120.439 57.2363 120.396 57.2168C120.354 57.1973 120.333 57.1566 120.333 57.0947C120.333 57.0329 120.354 57.002 120.396 57.002H125.572C125.605 57.002 125.632 57.0443 125.655 57.1289C125.678 57.2103 125.719 57.3258 125.777 57.4756L125.934 57.8711C125.979 57.985 126.002 58.0485 126.002 58.0615C126.002 58.0745 125.978 58.0892 125.929 58.1055C125.883 58.1217 125.852 58.1299 125.836 58.1299C125.823 58.1299 125.808 58.1217 125.792 58.1055C125.776 58.0859 125.756 58.0615 125.733 58.0322C125.714 57.9997 125.662 57.9525 125.577 57.8906C125.496 57.8255 125.271 57.793 124.903 57.793H121.661V60.2148H124.742ZM128.224 57.002C128.253 57.002 128.281 57.015 128.307 57.041L133.766 62.832H133.8V57.8564C133.8 57.6221 133.72 57.4251 133.561 57.2656C133.548 57.2526 133.52 57.2363 133.478 57.2168C133.435 57.1973 133.414 57.1566 133.414 57.0947C133.414 57.0329 133.435 57.002 133.478 57.002H135.074C135.117 57.002 135.138 57.0312 135.138 57.0898C135.138 57.1452 135.13 57.1794 135.113 57.1924C135.1 57.2021 135.081 57.2135 135.055 57.2266C135.029 57.2363 134.994 57.2624 134.952 57.3047C134.91 57.347 134.864 57.4219 134.815 57.5293C134.77 57.6367 134.747 57.7458 134.747 57.8564V64.7412C134.747 64.8617 134.731 64.9349 134.698 64.9609C134.669 64.987 134.62 65 134.552 65C134.483 65 134.428 64.9805 134.386 64.9414L128.248 58.4277V64.1455C128.248 64.3962 128.32 64.5931 128.463 64.7363C128.476 64.7493 128.504 64.7656 128.546 64.7852C128.588 64.8047 128.609 64.8454 128.609 64.9072C128.609 64.9691 128.588 65 128.546 65H126.974C126.931 65 126.91 64.9723 126.91 64.917C126.91 64.8584 126.917 64.8242 126.93 64.8145C126.946 64.8014 126.967 64.79 126.993 64.7803C127.019 64.7673 127.04 64.7526 127.057 64.7363C127.219 64.5736 127.301 64.3766 127.301 64.1455V57.8564C127.301 57.6156 127.224 57.4186 127.071 57.2656C127.058 57.2526 127.031 57.2363 126.988 57.2168C126.946 57.1973 126.925 57.1566 126.925 57.0947C126.925 57.0329 126.946 57.002 126.988 57.002H128.224ZM138.849 65H136.393C136.35 65 136.329 64.9723 136.329 64.917C136.329 64.8584 136.336 64.8242 136.349 64.8145C136.365 64.8014 136.386 64.79 136.412 64.7803C136.438 64.7673 136.471 64.7412 136.51 64.7021C136.552 64.6598 136.596 64.585 136.642 64.4775C136.687 64.3669 136.71 64.2562 136.71 64.1455V57.8564C136.71 57.6188 136.632 57.4219 136.476 57.2656C136.463 57.2526 136.435 57.2363 136.393 57.2168C136.35 57.1973 136.329 57.1566 136.329 57.0947C136.329 57.0329 136.35 57.002 136.393 57.002H138.604C139.399 57.002 140.159 57.2168 140.885 57.6465C141.399 57.9525 141.826 58.3854 142.164 58.9453C142.503 59.502 142.672 60.179 142.672 60.9766C142.672 61.4844 142.577 61.9808 142.389 62.4658C142.2 62.9476 141.941 63.3757 141.612 63.75C141.287 64.1243 140.882 64.4271 140.396 64.6582C139.915 64.8861 139.399 65 138.849 65ZM137.657 64.0527C137.657 64.1732 137.757 64.2334 137.955 64.2334H138.502C139.824 64.2301 140.742 63.7793 141.256 62.8809C141.555 62.3568 141.705 61.722 141.705 60.9766C141.705 60.0684 141.454 59.318 140.953 58.7256C140.702 58.4294 140.369 58.1982 139.952 58.0322C139.535 57.863 139.055 57.7783 138.512 57.7783H137.76C137.734 57.7783 137.709 57.7881 137.687 57.8076C137.667 57.8271 137.657 57.8516 137.657 57.8809V64.0527ZM147.926 60.2148C148.163 60.2148 148.36 60.1367 148.517 59.9805C148.53 59.9674 148.546 59.9398 148.565 59.8975C148.585 59.8551 148.626 59.834 148.688 59.834C148.749 59.834 148.78 59.8551 148.78 59.8975V61.3135C148.78 61.3558 148.751 61.377 148.692 61.377C148.637 61.377 148.603 61.3704 148.59 61.3574C148.58 61.3411 148.569 61.32 148.556 61.2939C148.546 61.2679 148.52 61.2354 148.478 61.1963C148.438 61.154 148.364 61.1117 148.253 61.0693C148.146 61.027 148.036 61.0059 147.926 61.0059H144.845V64.209H148.087C148.455 64.209 148.679 64.1781 148.761 64.1162C148.845 64.0511 148.904 63.9941 148.937 63.9453C148.972 63.8965 148.998 63.8721 149.015 63.8721C149.034 63.8721 149.067 63.8802 149.112 63.8965C149.161 63.9128 149.186 63.9274 149.186 63.9404C149.186 63.9535 149.163 64.0169 149.117 64.1309L148.961 64.5264C148.902 64.6761 148.862 64.79 148.839 64.8682C148.819 64.943 148.792 64.987 148.756 65H143.58C143.538 65 143.517 64.9723 143.517 64.917C143.517 64.8584 143.523 64.8242 143.536 64.8145C143.552 64.8014 143.574 64.79 143.6 64.7803C143.626 64.7673 143.658 64.7412 143.697 64.7021C143.74 64.6598 143.784 64.585 143.829 64.4775C143.875 64.3669 143.897 64.2562 143.897 64.1455V57.8564C143.897 57.6188 143.819 57.4219 143.663 57.2656C143.65 57.2526 143.622 57.2363 143.58 57.2168C143.538 57.1973 143.517 57.1566 143.517 57.0947C143.517 57.0329 143.538 57.002 143.58 57.002H148.756C148.788 57.002 148.816 57.0443 148.839 57.1289C148.862 57.2103 148.902 57.3258 148.961 57.4756L149.117 57.8711C149.163 57.985 149.186 58.0485 149.186 58.0615C149.186 58.0745 149.161 58.0892 149.112 58.1055C149.067 58.1217 149.036 58.1299 149.02 58.1299C149.007 58.1299 148.992 58.1217 148.976 58.1055C148.959 58.0859 148.94 58.0615 148.917 58.0322C148.897 57.9997 148.845 57.9525 148.761 57.8906C148.679 57.8255 148.455 57.793 148.087 57.793H144.845V60.2148H147.926ZM151.705 57.8027C151.637 57.8027 151.578 57.8271 151.529 57.876C151.48 57.9215 151.456 57.9785 151.456 58.0469V64.1455C151.456 64.3831 151.534 64.5801 151.69 64.7363C151.703 64.7493 151.731 64.7656 151.773 64.7852C151.816 64.8047 151.837 64.8454 151.837 64.9072C151.837 64.9691 151.816 65 151.773 65H150.191C150.149 65 150.128 64.9723 150.128 64.917C150.128 64.8584 150.134 64.8242 150.147 64.8145C150.164 64.8014 150.185 64.79 150.211 64.7803C150.237 64.7673 150.27 64.7412 150.309 64.7021C150.351 64.6598 150.395 64.585 150.44 64.4775C150.486 64.3669 150.509 64.2562 150.509 64.1455V57.8564C150.509 57.6188 150.431 57.4219 150.274 57.2656C150.261 57.2526 150.234 57.2363 150.191 57.2168C150.149 57.1973 150.128 57.1582 150.128 57.0996C150.128 57.041 150.149 57.0117 150.191 57.0117H152.696C153.412 57.0182 154.011 57.1729 154.493 57.4756C154.978 57.7751 155.221 58.2633 155.221 58.9404C155.221 59.738 154.804 60.3223 153.971 60.6934C153.665 60.8301 153.432 60.9066 153.272 60.9229C153.113 60.9359 153.033 60.9473 153.033 60.957L153.189 61.0449C153.255 61.084 153.388 61.1833 153.59 61.3428C153.792 61.5023 153.992 61.6829 154.19 61.8848C154.389 62.0833 154.625 62.36 154.898 62.7148C155.172 63.0697 155.374 63.3594 155.504 63.584L155.904 64.2969C156.051 64.5638 156.173 64.7103 156.271 64.7363C156.368 64.7624 156.417 64.8128 156.417 64.8877C156.417 64.9626 156.396 65 156.354 65H154.771C154.729 65 154.708 64.9723 154.708 64.917C154.708 64.8584 154.715 64.8242 154.728 64.8145C154.744 64.8014 154.765 64.79 154.791 64.7803C154.817 64.7673 154.838 64.751 154.854 64.7314C154.874 64.7119 154.882 64.6745 154.879 64.6191C154.879 64.5605 154.872 64.515 154.859 64.4824C154.622 63.8704 154.298 63.2878 153.888 62.7344C153.126 61.7057 152.47 61.1523 151.92 61.0742C151.842 61.0612 151.803 61.0531 151.803 61.0498C151.796 60.9912 151.793 60.9115 151.793 60.8105V60.5127C151.793 60.4801 151.809 60.4639 151.842 60.4639C152.643 60.4639 153.268 60.3027 153.717 59.9805C154.062 59.7363 154.234 59.4076 154.234 58.9941C154.234 58.5807 154.068 58.2796 153.736 58.0908C153.404 57.8988 153.028 57.8027 152.608 57.8027H151.705Z" fill="black"/>
<path d="M21 37L31 47L21 57V55V37Z" fill="black"/>
<path d="M241 37V57L231 47L241 37Z" fill="black"/>
<path d="M33 47H229" stroke="black" stroke-width="2"/>
<path d="M33.5 14L34.2557 13.3451L33.5 12.4731L32.7443 13.3451L33.5 14ZM40 21.5L40.9435 21.8315L41.1359 21.2838L40.7557 20.8451L40 21.5ZM33.5 40L32.5565 40.3315L33.5 43.0167L34.4435 40.3315L33.5 40ZM27 21.5L26.2443 20.8451L25.8641 21.2838L26.0565 21.8315L27 21.5ZM33.5 3L34.4056 2.57592L33.5 0.641979L32.5944 2.57592L33.5 3ZM37.1292 10.75V11.75H38.7017L38.0348 10.3259L37.1292 10.75ZM29.8708 10.75L28.9652 10.3259L28.2983 11.75H29.8708V10.75ZM32.7443 14.6549L39.2443 22.1549L40.7557 20.8451L34.2557 13.3451L32.7443 14.6549ZM39.0565 21.1685L32.5565 39.6685L34.4435 40.3315L40.9435 21.8315L39.0565 21.1685ZM34.4435 39.6685L27.9435 21.1685L26.0565 21.8315L32.5565 40.3315L34.4435 39.6685ZM27.7557 22.1549L34.2557 14.6549L32.7443 13.3451L26.2443 20.8451L27.7557 22.1549ZM32.5944 3.42408L36.2235 11.1741L38.0348 10.3259L34.4056 2.57592L32.5944 3.42408ZM37.1292 9.75H29.8708V11.75H37.1292V9.75ZM30.7765 11.1741L34.4056 3.42408L32.5944 2.57592L28.9652 10.3259L30.7765 11.1741Z" fill="black"/>
<path d="M253.76 40.4297C253.391 40.3066 253.101 40.2451 252.89 40.2451C252.573 40.2451 252.321 40.2627 252.134 40.2979C251.946 40.3271 251.844 40.3271 251.826 40.2979C251.809 40.2686 251.8 40.2246 251.8 40.166C251.8 40.1074 251.82 40.0459 251.861 39.9814C251.902 39.917 251.952 39.8789 252.011 39.8672C252.884 39.668 254.079 39.5684 255.597 39.5684L260.009 46.7754H260.097L264.315 39.5684C265.833 39.5684 267.028 39.668 267.901 39.8672C268.042 39.8965 268.112 40.0049 268.112 40.1924C268.112 40.2979 268.019 40.3359 267.831 40.3066C267.644 40.2715 267.395 40.2539 267.084 40.2539C266.773 40.2539 266.442 40.3213 266.091 40.4561L267.77 52.4619C267.852 53.0889 268.042 53.4727 268.341 53.6133C268.417 53.6484 268.455 53.7217 268.455 53.833C268.455 53.9443 268.417 54 268.341 54H265.414C265.338 54 265.3 53.9502 265.3 53.8506C265.3 53.7451 265.312 53.6836 265.335 53.666C265.364 53.6426 265.402 53.6191 265.449 53.5957C265.602 53.5312 265.733 53.3613 265.845 53.0859C265.962 52.8047 266.021 52.6143 266.021 52.5146C266.021 52.4092 266.018 52.3389 266.012 52.3037L264.597 41.8623H264.553L260.211 49.4561C260.193 49.4854 260.085 49.4971 259.886 49.4912C259.692 49.4854 259.59 49.4736 259.578 49.4561L255.052 41.8623H254.973L253.681 52.3037C253.651 52.4912 253.689 52.7139 253.795 52.9717C253.9 53.2236 253.988 53.3848 254.059 53.4551C254.129 53.5254 254.202 53.5781 254.278 53.6133C254.354 53.6484 254.393 53.7217 254.393 53.833C254.393 53.9443 254.354 54 254.278 54H251.598C251.521 54 251.483 53.9502 251.483 53.8506C251.483 53.7451 251.495 53.6836 251.519 53.666C251.548 53.6426 251.586 53.6191 251.633 53.5957C251.908 53.4785 252.087 53.1006 252.169 52.4619L253.76 40.4297Z" fill="black"/>
<path d="M1.21875 54C1.14258 54 1.10449 53.9502 1.10449 53.8506C1.10449 53.7451 1.11621 53.6836 1.13965 53.666C1.16895 53.6426 1.20703 53.6221 1.25391 53.6045C1.30078 53.5811 1.35938 53.5342 1.42969 53.4639C1.50586 53.3877 1.58496 53.2529 1.66699 53.0596C1.74902 52.8604 1.79004 52.6611 1.79004 52.4619V41.1416C1.79004 40.7139 1.64941 40.3594 1.36816 40.0781C1.34473 40.0547 1.29492 40.0254 1.21875 39.9902C1.14258 39.9551 1.10449 39.8818 1.10449 39.7705C1.10449 39.6592 1.14258 39.6035 1.21875 39.6035H10.5352C10.5938 39.6035 10.6436 39.6797 10.6846 39.832C10.7256 39.9785 10.7988 40.1865 10.9043 40.4561L11.1855 41.168C11.2676 41.373 11.3086 41.4873 11.3086 41.5107C11.3086 41.5342 11.2646 41.5605 11.1768 41.5898C11.0947 41.6191 11.0391 41.6338 11.0098 41.6338C10.9688 41.6338 10.9189 41.5928 10.8604 41.5107C10.8076 41.4229 10.7051 41.3203 10.5527 41.2031C10.4062 41.0859 9.99902 41.0273 9.33105 41.0273H3.49512V45.3867H9.04102C9.46875 45.3867 9.82324 45.2461 10.1045 44.9648C10.1279 44.9414 10.1572 44.8916 10.1924 44.8154C10.2275 44.7393 10.3008 44.7012 10.4121 44.7012C10.5234 44.7012 10.5791 44.7393 10.5791 44.8154V47.3643C10.5791 47.4404 10.5264 47.4785 10.4209 47.4785C10.3213 47.4785 10.2598 47.4668 10.2363 47.4434C10.2188 47.4141 10.1982 47.376 10.1748 47.3291C10.1572 47.2822 10.1104 47.2236 10.0342 47.1533C9.96387 47.0771 9.8291 47.001 9.62988 46.9248C9.43652 46.8486 9.24023 46.8105 9.04102 46.8105H3.49512V52.4619C3.49512 52.8896 3.63574 53.2441 3.91699 53.5254C3.94043 53.5488 3.99023 53.5781 4.06641 53.6133C4.14258 53.6484 4.18066 53.7217 4.18066 53.833C4.18066 53.9443 4.14258 54 4.06641 54H1.21875Z" fill="black"/>
</svg>
