<svg width="267" height="58" viewBox="0 0 267 58" fill="none" xmlns="http://www.w3.org/2000/svg">
<path d="M22 37L32 47L27 49L22 51V37Z" fill="black"/>
<path d="M242 37V51L232 47L242 37Z" fill="black"/>
<path d="M34 47H230" stroke="black" stroke-width="2"/>
<path d="M34.5 14L35.2557 13.3451L34.5 12.4731L33.7443 13.3451L34.5 14ZM41 21.5L41.9435 21.8315L42.1359 21.2838L41.7557 20.8451L41 21.5ZM34.5 40L33.5565 40.3315L34.5 43.0167L35.4435 40.3315L34.5 40ZM28 21.5L27.2443 20.8451L26.8641 21.2838L27.0565 21.8315L28 21.5ZM34.5 3L35.4056 2.57592L34.5 0.641979L33.5944 2.57592L34.5 3ZM38.1292 10.75V11.75H39.7017L39.0348 10.3259L38.1292 10.75ZM30.8708 10.75L29.9652 10.3259L29.2983 11.75H30.8708V10.75ZM33.7443 14.6549L40.2443 22.1549L41.7557 20.8451L35.2557 13.3451L33.7443 14.6549ZM40.0565 21.1685L33.5565 39.6685L35.4435 40.3315L41.9435 21.8315L40.0565 21.1685ZM35.4435 39.6685L28.9435 21.1685L27.0565 21.8315L33.5565 40.3315L35.4435 39.6685ZM28.7557 22.1549L35.2557 14.6549L33.7443 13.3451L27.2443 20.8451L28.7557 22.1549ZM33.5944 3.42408L37.2235 11.1741L39.0348 10.3259L35.4056 2.57592L33.5944 3.42408ZM38.1292 9.75H30.8708V11.75H38.1292V9.75ZM31.7765 11.1741L35.4056 3.42408L33.5944 2.57592L29.9652 10.3259L31.7765 11.1741Z" fill="black"/>
<path fill-rule="evenodd" clip-rule="evenodd" d="M1.62511 46.2174C1.13869 45.7558 0.744383 45.2005 0.442208 44.5513C0.147403 43.9022 0 43.1341 0 42.247C0 41.3599 0.232159 40.498 0.696478 39.6614C1.1608 38.8247 1.82779 38.172 2.69747 37.7032C3.56714 37.2344 4.46999 37 5.40599 37C7.11586 37 8.47565 37.5265 9.48536 38.5795C10.4951 39.6253 10.9999 40.8983 10.9999 42.3985C11.0073 43.8986 10.4766 45.1644 9.40798 46.1958C8.55247 47.0156 7.5175 47.5073 6.30304 47.6709C6.30046 48.8105 6.30052 50.4021 6.30169 51.995C7.62928 52.3444 8.93722 52.687 9.68193 52.8774L9.35878 54.0576C8.67669 53.8744 7.51708 53.5696 6.30283 53.2521C6.30551 55.7805 6.31006 58 6.31006 58H5.05223C5.05223 58 5.05718 55.5875 5.05979 52.9276C3.27065 52.4612 1.67946 52.0487 1.67946 52.0487L2.00501 50.8598C2.00501 50.8598 3.40806 51.2319 5.06082 51.668C5.06175 50.2105 5.06165 48.78 5.05937 47.7232C4.47236 47.689 3.8988 47.5549 3.33867 47.3209C2.6901 47.0468 2.11891 46.679 1.62511 46.2174ZM2.99596 38.9149C2.5169 39.2106 2.16313 39.6001 1.93466 40.0833C1.70619 40.5593 1.59195 41.1651 1.59195 41.9008C1.59195 42.6365 1.79831 43.3721 2.21104 44.1078C2.63114 44.8434 3.20232 45.4276 3.9246 45.8604C4.65424 46.2859 5.37651 46.4987 6.09142 46.4987C6.81369 46.4987 7.39961 46.34 7.84919 46.0227C8.30614 45.7053 8.65254 45.2942 8.88838 44.7894C9.1316 44.2845 9.2532 43.7291 9.2532 43.1233C9.2532 41.8467 8.83679 40.7504 8.00396 39.8345C7.17851 38.9185 6.0693 38.4605 4.67635 38.4605C4.03515 38.4605 3.47502 38.612 2.99596 38.9149Z" fill="#FF0000"/>
<path fill-rule="evenodd" clip-rule="evenodd" d="M262.507 41.9491L262.613 41.7776C262.632 41.7453 262.655 41.7243 262.683 41.7146C262.718 41.7003 262.739 41.6909 262.746 41.6864L265.805 41.0046C265.829 40.9929 265.87 41.0035 265.927 41.0364C265.933 41.04 265.939 41.0437 265.945 41.0474C265.951 41.0505 265.957 41.0538 265.963 41.0574C266.02 41.0903 266.05 41.1203 266.052 41.1474L266.991 44.1372C266.99 44.1456 266.993 44.1685 266.998 44.2059C267.004 44.235 266.997 44.2657 266.978 44.298L266.883 44.4753C266.849 44.5335 266.806 44.5732 266.754 44.5945C266.715 44.6152 266.663 44.6114 266.599 44.583C266.589 44.5786 266.551 44.5595 266.495 44.5307C266.19 44.3772 265.34 43.9481 265.251 43.9982C265.145 44.0577 265.032 44.1908 264.913 44.3975C264.415 45.2376 263.244 47.2808 262.618 48.376C263.57 49.4298 264.046 50.7025 264.046 52.1941C264.053 53.7335 263.521 55.0324 262.447 56.0907C261.374 57.1417 260.02 57.6671 258.384 57.6671C257.689 57.6671 257.011 57.5265 256.353 57.2453C255.701 56.964 255.128 56.5866 254.632 56.1129C254.143 55.6392 253.748 55.0694 253.444 54.4033C253.148 53.7372 253 52.949 253 52.0387C253 51.1283 253.233 50.2439 253.699 49.3854C254.166 48.5269 254.835 47.8571 255.709 47.376C256.582 46.895 257.489 46.6544 258.429 46.6544C259.571 46.6544 260.558 46.8937 261.39 47.3724C262.045 46.2471 263.112 44.4129 263.56 43.6162C263.679 43.4094 263.738 43.2454 263.737 43.124C263.735 43.0217 262.938 42.4998 262.653 42.313C262.6 42.2781 262.565 42.2549 262.556 42.2484C262.499 42.2071 262.47 42.1645 262.469 42.1206C262.461 42.0644 262.474 42.0072 262.507 41.9491ZM254.943 49.8184C255.172 49.3225 255.527 48.9228 256.009 48.6194C256.49 48.3085 257.052 48.1531 257.696 48.1531C259.095 48.1531 260.209 48.6231 261.037 49.563C261.874 50.5029 262.292 51.6279 262.292 52.9379C262.292 53.5596 262.17 54.1294 261.926 54.6475C261.689 55.1656 261.341 55.5874 260.882 55.9131C260.431 56.2387 259.842 56.4016 259.117 56.4016C258.399 56.4016 257.674 56.1832 256.941 55.7466C256.216 55.3025 255.642 54.703 255.22 53.9481C254.806 53.1932 254.599 52.4383 254.599 51.6834C254.599 50.9285 254.713 50.3068 254.943 49.8184Z" fill="#00FF00"/>
</svg>
