<svg width="920" height="920" viewBox="0 0 920 920" fill="none" xmlns="http://www.w3.org/2000/svg">
<path class="fil" d="m820.13 364.04-0.584-0.812-2.197 1.58 2.696 0.228 0.085-0.996zm14.495 44.024 0.663 0.749 0.572-0.507-0.338-0.685-0.897 0.443zm-2.529 2.24-0.663-0.748-1.809 1.601 2.412 0.145 0.06-0.998zm4.777 15.836 0.051-0.999-0.051 0.999zm-2.965 6.48 0.289 0.957-0.289-0.957zm1.74 20.565-0.281 0.96 0.915 0.268 0.311-0.902-0.945-0.326zm3.236-9.387 0.945-0.328-0.949-2.73-0.941 2.732 0.945 0.326zm1.802 20.644h1v-1.273l-1.237 0.301 0.237 0.972zm0 11.538-0.204 0.979 1.204 0.251v-1.23h-1zm-10.319 12.008 0.692-0.722-1.556-1.492-0.134 2.152 0.998 0.062zm0 30.712-0.927 0.376 0.161 0.396 0.398 0.158 0.368-0.93zm-2.622-6.47 0.382-0.924-2.203-0.909 0.895 2.209 0.926-0.376zm10.632 4.385 0.922-0.387-0.159-0.38-0.382-0.158-0.381 0.925zm2.651 6.314-0.369 0.929 2.212 0.877-0.921-2.193-0.922 0.387zm-4.441 14.159 0.968-0.252-0.263-1.013-1 0.309 0.295 0.956zm-11.538 24.219 0.646-0.763-0.243-0.206-0.318-0.027-0.085 0.996zm-2.061 17.052 0.946-0.325-0.34-0.988-0.972 0.383 0.366 0.93zm-6.738 2.656-0.366-0.931-2.585 1.019 2.641 0.862 0.31-0.95zm4.145 1.353-0.31 0.95 2.206 0.721-0.992-2.098-0.904 0.427zm-2.713-5.741 0.905-0.427-0.389-0.822-0.855 0.308 0.339 0.941zm-3.328-232.2-0.913-0.408-1.014 2.268 2.303-0.933-0.376-0.927zm2.765-6.188 0.927-0.376-0.882-2.176-0.958 2.144 0.913 0.408zm3.468 8.554-0.927 0.376 0.882 2.176 0.958-2.144-0.913-0.408zm-23.209 270.04 0.075-0.997-2.698-0.202 1.918 1.908 0.705-0.709zm-17.195 43.042 0.027 1 0.764-0.021 0.181-0.742-0.972-0.237zm-3.377 0.09-0.027-1-2.415 0.064 1.754 1.662 0.688-0.726zm-6.52 15.201 0.681-0.732-0.681 0.732zm-6.437 3.058-0.394 0.92h1e-3l0.393-0.92zm-11.886 16.872-0.833 0.555 0.529 0.794 0.818-0.491-0.514-0.858zm8.513-5.11 0.934 0.356 1.029-2.701-2.478 1.487 0.515 0.858zm-11.89 16.972 0.766 0.642 0.819-0.975-1.141-0.564-0.444 0.897zm-7.417 8.838-0.785 0.619 0.761 0.967 0.79-0.943-0.766-0.643zm-15.623 2.566 0.994-0.108-0.232-2.144-1.486 1.562 0.724 0.69zm-19.742 23.527-0.951-0.308-0.132 0.406 0.203 0.377 0.88-0.475zm2.151-6.642 0.886-0.463-1.103-2.112-0.734 2.267 0.951 0.308zm5.326 10.193 0.955 0.296 0.122-0.394-0.191-0.365-0.886 0.463zm-2.028 6.54-0.88 0.475 1.13 2.094 0.705-2.273-0.955-0.296zm-12.504 7.992 0.903 0.429 0.45-0.945-0.965-0.406-0.388 0.922zm-24.407 11.136 0.986-0.169-0.054-0.314-0.226-0.225-0.706 0.708zm-12.539 11.738 0.934 0.358 0.374-0.975-0.991-0.332-0.317 0.949zm-6.869-2.297 0.318-0.949-2.635-0.881 1.469 2.358 0.848-0.528zm2.306 3.701-0.849 0.529 1.227 1.969 0.589-2.244-0.967-0.254zm1.612-6.142 0.967 0.254 0.231-0.879-0.853-0.313-0.345 0.938zm146.71-180.01-0.437-0.899-2.234 1.085 2.363 0.765 0.308-0.951zm6.096-2.963 0.952 0.308 0.723-2.234-2.112 1.027 0.437 0.899zm-2.842 8.782-0.952-0.308-0.723 2.234 2.112-1.026-0.437-0.9zm-191.51 191.82 0.696-0.718-1.941-1.884 0.249 2.694 0.996-0.092zm-40.784 22.021-0.621 0.784 0.6 0.474 0.615-0.454-0.594-0.804zm-2.651-2.096 0.621-0.784-1.895-1.499 0.281 2.4 0.993-0.117zm-14.475 9.638 0.992-0.126-0.992 0.126zm-27.11 1.409-0.995-0.108-0.102 0.949 0.942 0.147 0.155-0.988zm9.81 1.533 0.489 0.872 2.52-1.414-2.855-0.446-0.154 0.988zm-20.004 5.408 0.176 0.985 1.253-0.224-0.514-1.165-0.915 0.404zm-11.358 2.032-1-0.029-0.035 1.23 1.211-0.216-0.176-0.985zm-13.637-8.043 0.833 0.554 1.195-1.795-2.142 0.247 0.114 0.994zm-30.233 5.408-0.532-0.846-0.362 0.227-0.086 0.42 0.98 0.199zm5.908-3.72 0.977 0.212 0.507-2.328-2.017 1.27 0.533 0.846zm-2.444 11.237 0.543 0.84 0.346-0.224 0.088-0.403-0.977-0.213zm-5.749 3.721-0.98-0.199-0.474 2.332 1.998-1.293-0.544-0.84zm-14.719-1.878 0.417 0.908 0.952-0.437-0.481-0.93-0.888 0.459zm-25.873-7.093 0.865 0.501 0.16-0.275-0.03-0.318-0.995 0.092zm-17.149 0.974 0.487 0.873 0.913-0.509-0.548-0.889-0.852 0.525zm-3.8-6.166 0.851-0.524-1.458-2.366-0.383 2.752 0.99 0.138zm-0.602 4.319-0.991-0.138-0.32 2.298 1.891-1.345-0.58-0.815zm5.173-3.681 0.58 0.815 0.74-0.527-0.453-0.788-0.867 0.5zm227.98-44.162 0.241-0.97-2.411-0.598 1.324 2.101 0.846-0.533zm6.579 1.633 0.533 0.846 1.986-1.251-2.278-0.566-0.241 0.971zm-7.81 4.92-0.533-0.846-1.987 1.251 2.279 0.565 0.241-0.97zm-271.28 23.817 0.995-0.097-0.262-2.693-1.552 2.216 0.819 0.574zm-45.349-9.578-0.98 0.198 0.15 0.749 0.763 0.051 0.067-0.998zm-0.666-3.312 0.98-0.197-0.476-2.368-1.337 2.012 0.833 0.553zm-20.207-9.642-0.973-0.23 0.973 0.23zm-18.657-8.824-0.689-0.725-0.691 0.657 0.623 0.721 0.757-0.653zm6.492 7.513-0.191 0.982 2.837 0.551-1.89-2.187-0.756 0.654zm-18.756-8.81-0.502 0.864 1.1 0.64 0.361-1.221-0.959-0.283zm-9.978-5.796-0.743-0.668-0.823 0.915 1.064 0.618 0.502-0.865zm-5.2-14.954 0.277 0.961 2.072-0.596-1.794-1.197-0.555 0.832zm-26.558-15.425 0.141-0.991-0.423-0.06-0.336 0.265 0.618 0.786zm6.912 0.982 0.608 0.794 1.892-1.448-2.359-0.336-0.141 0.99zm-9.131 6.991-0.129 0.992 0.409 0.053 0.328-0.251-0.608-0.794zm-6.791-0.879-0.619-0.786-1.869 1.472 2.359 0.306 0.129-0.992zm-10.013-10.952-0.269 0.964 1.008 0.281 0.235-1.02-0.974-0.225zm-15.148-22.142 0.335 0.943 0.301-0.107 0.183-0.261-0.819-0.575zm-13.71-10.346-0.193 0.981 1.025 0.202 0.157-1.033-0.989-0.15zm1.088-7.16 0.989 0.15 0.417-2.747-2.072 1.851 0.666 0.746zm-3.252 2.905-0.666-0.746-1.731 1.546 2.312 0.196 0.085-0.996zm6.327 0.537-0.085 0.996 0.905 0.077 0.163-0.894-0.983-0.179zm202.46 113.75 0.811-0.584-1.452-2.016-0.349 2.46 0.99 0.14zm3.962 5.5-0.14 0.99 2.324 0.33-1.372-1.905-0.812 0.585zm-9.139-1.298 0.141-0.99-2.325-0.33 1.373 1.904 0.811-0.584zm-221.46-155.54 0.826 0.564 1.527-2.233-2.613 0.703 0.26 0.966zm-28.629-36.451-0.878-0.478-0.365 0.672 0.552 0.528 0.691-0.722zm1.615-2.967 0.879 0.478 1.154-2.122-2.316 0.685 0.283 0.959zm-9.887-13.261 0.292 0.957-0.292-0.957zm-2.069 0.632 0.292 0.957-0.292-0.957zm-2.738-3.71-0.599-0.802 0.599 0.802zm-3.256-22.766-0.063-0.998-0.952 0.06 0.015 0.953 1-0.015zm0.156 9.928-0.777 0.63 1.822 2.244-0.046-2.89-0.999 0.016zm-8.728-18.794-0.941 0.34 0.434 1.197 1.06-0.704-0.553-0.833zm-3.9321-10.848-0.1414-0.99-1.218 0.174 0.4193 1.156 0.9401-0.34zm5.6101-14.805-0.405 0.914 1.972 0.873-0.608-2.069-0.959 0.282zm-10.465-28.875 0.7433-0.669-0.286-0.318-0.4274-0.013-0.0299 1zm4.6696 5.19-0.0435 0.999 2.3812 0.103-1.5944-1.771-0.7433 0.669zm-11.49-0.5-0.7349 0.678 0.2795 0.303 0.412 0.018 0.0434-0.999zm-4.6433-5.033 0.0299-0.999-2.3784-0.071 1.6135 1.748 0.735-0.678zm-0.6493-14.825-0.8244 0.567 0.5926 0.862 0.8349-0.631-0.6031-0.798zm2.595-26.701-0.3476 0.937 0.299 0.111 0.3079-0.083-0.2593-0.965zm-3.8729-16.734-0.778 0.628 0.6564 0.813 0.7833-0.691-0.6617-0.75zm5.4301-4.792 0.6617 0.749 2.0832-1.838-2.7771 0.089 0.0322 1zm-4.3583 0.14-0.0321-1-2.3193 0.075 1.647 1.635 0.7044-0.71zm4.5067 4.473-0.7045 0.709 0.645 0.64 0.6987-0.58-0.6392-0.769zm82.248 217.17 0.997 0.073 0.18-2.478-1.846 1.662 0.669 0.743zm-0.492 6.761-0.743 0.669 1.571 1.745 0.17-2.342-0.998-0.072zm-6.175-6.861 0.743-0.669-1.57-1.745-0.17 2.341 0.997 0.073zm-69.967-263.1 0.265 0.964 2.6088-0.717-2.448-1.152-0.4258 0.905zm1.7207-46.318-0.3612-0.932-0.7127 0.276 0.0793 0.76 0.9946-0.104zm3.1505-1.22 0.3611 0.933 2.2528-0.873-2.2104-0.975-0.4035 0.915zm6.0625-21.553 0.061-0.998-0.061 0.998zm-7.0215 4.189-0.3954 0.919 0.3954-0.919zm12.542-24.075 0.597-0.802-0.765-0.57-0.605 0.737 0.773 0.635zm-6.299 7.675-1-0.021-0.06 2.889 1.833-2.233-0.773-0.635zm5.49-19.981-0.937-0.348-0.443 1.193 1.264 0.148 0.116-0.993zm4.013-10.818 0.532-0.847-1.042-0.655-0.427 1.154 0.937 0.348zm13.851-7.67-0.9 0.437 0.94 1.94 0.874-1.971-0.914-0.406zm10.681-28.795 1-0.03-0.013-0.427-0.318-0.286-0.669 0.743zm0.208 6.978-0.679 0.734 1.75 1.618-0.071-2.382-1 0.03zm-8.443-7.808-0.999 0.042 0.017 0.412 0.303 0.28 0.679-0.734zm-0.289-6.842 0.669-0.743-1.769-1.592 0.101 2.377 0.999-0.042zm9.088-11.73-0.995-0.101-0.106 1.041 1.045 0.058 0.056-0.998zm19.241-18.695-0.871 0.49 0.156 0.278 0.288 0.136 0.427-0.904zm7.862-15.271-0.999-0.024-0.025 1.045 1.044-0.021-0.02-1zm7.241-0.146 0.02 0.999 2.778-0.056-2.176-1.727-0.622 0.784zm-3.415-2.711 0.621-0.783-1.818-1.442 0.2 2.311 0.997-0.086zm0.546 6.326-0.996 0.086 0.078 0.906 0.909 8e-3 9e-3 -1zm-77.635 218.86 0.7141 0.7 1.7389-1.774-2.4829 0.075 0.0299 0.999zm-4.745 4.841-0.9996 0.03 0.0702 2.346 1.6435-1.676-0.7141-0.7zm-0.2761-9.227 0.9996-0.03-0.0702-2.347-1.6435 1.677 0.7141 0.7zm115.2-244.88-0.416 0.91 2.461 1.124-1.138-2.454-0.907 0.42zm31.042-34.418 0.322-0.947-0.724-0.246-0.427 0.634 0.829 0.559zm3.2 1.086-0.322 0.947 2.288 0.776-1.07-2.166-0.896 0.443zm11.382-12.002-0.893 0.451 0.893-0.451zm-0.975-1.931-0.893 0.451 0.893-0.451zm3.19-3.33 0.688-0.726-0.688 0.726zm21.879-7.086 0.973-0.232-0.222-0.928-0.937 0.178 0.186 0.982zm-9.757 1.845-0.753-0.658-1.9 2.177 2.839-0.537-0.186-0.982zm17.033-11.802-0.496-0.868-1.105 0.631 0.875 0.925 0.726-0.688zm10.02-5.721 0.952-0.308-0.379-1.171-1.069 0.61 0.496 0.869zm15.544 3.006-0.97-0.243-0.524 2.091 1.935-0.95-0.441-0.898zm26.671-15.23 0.786 0.619 0.264-0.336-0.06-0.424-0.99 0.141zm-4.319 5.485-0.992 0.128 0.304 2.363 1.474-1.872-0.786-0.619zm-1.464-11.407-0.794-0.608-0.251 0.327 0.053 0.409 0.992-0.128zm4.168-5.4324 0.99-0.1407-0.335-2.3557-1.448 1.8877 0.793 0.6087zm14.498-3.1646-0.698-0.7159-0.75 0.7308 0.765 0.7153 0.683-0.7302zm26.754-1.9907-0.984-0.1828-0.058 0.3135 0.134 0.2893 0.908-0.42zm15.829-6.6663-0.752-0.6596-0.689 0.7853 0.815 0.6541 0.626-0.7798zm5.647 4.5345-0.626 0.7798 2.167 1.7396-0.561-2.7213-0.98 0.2019zm-0.88-4.2706 0.979-0.2019-0.468-2.2727-1.331 1.9013 0.82 0.5733zm-3.64 5.2025-0.819-0.5732-0.521 0.7445 0.691 0.5896 0.649-0.7609zm-199.99 118.03 0.099 0.995 2.472-0.245-1.952-1.536-0.619 0.786zm-6.745 0.667-0.786-0.618-1.452 1.844 2.336-0.231-0.098-0.995zm5.709-7.253 0.786 0.618 1.452-1.845-2.336 0.232 0.098 0.995zm248.63-114.04-0.905 0.4248 1.149 2.4493 0.72-2.608-0.964-0.2661zm45.937-6.166 0.858-0.5142-0.393-0.6556-0.736 0.2072 0.271 0.9626zm1.738 2.8976-0.858 0.5142 1.242 2.072 0.586-2.3439-0.97-0.2423zm22.269 2.3164 0.994-0.1091-0.994 0.1091zm20.535 2.0653 0.892 0.4524 0.431-0.8507-0.829-0.4712-0.494 0.8695zm-8.633-4.9048-0.149-0.9889-2.858 0.4308 2.513 1.4275 0.494-0.8694zm20.623 2.0188 0.184-0.983-1.252-0.2336 0.069 1.2709 0.999-0.0543zm11.342 2.1185 0.925 0.3806 0.468-1.1377-1.209-0.2259-0.184 0.983zm9.909 12.348-0.582-0.813-1.753 1.256 2.091 0.527 0.244-0.97zm30.191 5.639 0.199 0.98 0.419-0.085 0.228-0.362-0.846-0.533zm-6.842 1.389-0.839-0.544-1.297 1.998 2.335-0.474-0.199-0.98zm6.262-9.646-0.211-0.9774-0.403 0.0871-0.224 0.3458 0.838 0.5445zm6.693-1.4463 0.847 0.5331 1.268-2.0131-2.326 0.5025 0.211 0.9775zm13.103 6.9653-0.069-0.998-1.044 0.073 0.12 1.04 0.993-0.115zm21.69 15.788-0.632-0.775-0.247 0.201-0.085 0.308 0.964 0.266zm16.384 5.157-0.147-0.989-1.033 0.153 0.198 1.025 0.982-0.189zm1.373 7.111-0.982 0.19 0.527 2.728 1.332-2.438-0.877-0.48zm2.091-3.826 0.878 0.479 1.112-2.036-2.244 0.589 0.254 0.968zm-6.141 1.612-0.254-0.967-0.879 0.231 0.146 0.897 0.987-0.161zm-228.86-39.36-0.569 0.8225 2.044 1.4126-0.495-2.4343-0.98 0.1992zm-5.576-3.8546-0.199-0.98-2.3 0.4675 1.931 1.3351 0.568-0.8226zm9.046-1.8381 0.199 0.98 2.301-0.4675-1.931-1.3351-0.569 0.8226zm261.34 72.742-0.967-0.257-0.696 2.614 2.229-1.533-0.566-0.824zm39.134 24.835 0.987 0.158 0.121-0.754-0.696-0.315-0.412 0.911zm-0.534 3.336-0.988-0.158-0.382 2.386 1.956-1.418-0.586-0.81zm13.739 9.211-0.594-0.805 0.594 0.805zm16.21 21.683 0.392 0.92 0.877-0.373-0.331-0.894-0.938 0.347zm-3.454-9.309 0.523-0.853-2.465-1.509 1.005 2.71 0.937-0.348zm14.49 14.814 0.773-0.634-0.808-0.984-0.765 1.017 0.8 0.601zm7.32 8.92 0.463 0.886 1.09-0.57-0.78-0.951-0.773 0.635zm-0.359 15.828 0.077-0.997-2.15-0.167 1.262 1.749 0.811-0.585zm19.484 23.741-0.478 0.878 0.375 0.204 0.408-0.13-0.305-0.952zm-6.131-3.339-0.292-0.956-2.28 0.695 2.093 1.14 0.479-0.879zm11-3.355 0.467-0.884-0.365-0.193-0.394 0.12 0.292 0.957zm6.054 3.199 0.305 0.952 2.266-0.725-2.104-1.111-0.467 0.884zm5.55 13.762 0.588-0.808-0.846-0.616-0.577 0.873 0.835 0.551zm6.446 26.042 0.015-1-0.319-5e-3 -0.262 0.181 0.566 0.824zm9.225 14.488 0.524-0.851-0.89-0.548-0.508 0.913 0.874 0.486zm-3.524 6.328-0.874-0.487-1.352 2.428 2.589-1.01-0.363-0.931zm4.062-1.584 0.363 0.932 2.162-0.843-2.097-0.993-0.428 0.904zm-5.739-2.717 0.428-0.903-0.821-0.389-0.466 0.78 0.859 0.512zm-149.88-177.38-0.965 0.264 0.656 2.396 1.187-2.182-0.878-0.478zm-1.789-6.538 0.479-0.879-2.062-1.122 0.619 2.265 0.964-0.264zm8.108 4.413-0.478 0.878 2.062 1.122-0.619-2.264-0.965 0.264zm160.6 212.3-8.922 6.415 1.168 1.624 8.922-6.416-1.168-1.623zm-8.423 8.223 8.15 0.692 0.169-1.993-8.15-0.691-0.169 1.992zm8.15 0.692 7.679 0.652 0.169-1.993-7.679-0.652-0.169 1.993zm-0.146-4.208-0.74 2.97 1.941 0.483 0.739-2.969-1.94-0.484zm-0.74 2.97-0.697 2.798 1.941 0.484 0.697-2.799-1.941-0.483zm-4.64 21.138 7.789 0.078 0.02-2-7.789-0.077-0.02 1.999zm7.789 0.078 4.566 0.045 0.02-2-4.566-0.045-0.02 2zm4.566 0.045 2.94 0.03 0.02-2-2.94-0.03-0.02 2zm-0.629-4.743-0.356 3.646 1.99 0.195 0.357-3.646-1.991-0.195zm-0.356 3.646-0.234 2.39 1.99 0.195 0.234-2.39-1.99-0.195zm-5.827-4.518 1.29 4.828 1.933-0.516-1.291-4.829-1.932 0.517zm1.29 4.828 1.398 5.232 1.932-0.516-1.397-5.232-1.933 0.516zm0.535 16.077 1.701 3.441 1.793-0.887-1.701-3.44-1.793 0.886zm1.701 3.441 1.991 4.026 1.793-0.887-1.991-4.026-1.793 0.887zm2.224 2.834-2.529 2.24 1.326 1.497 2.529-2.24-1.326-1.497zm-1.926 3.986 9.863 0.594 0.12-1.996-9.863-0.594-0.12 1.996zm-5.9-6.378c0.2-0.024 0.96-0.029 2.177-6e-3 1.172 0.022 2.677 0.065 4.288 0.12l0.067-1.999c-1.614-0.055-3.131-0.099-4.318-0.121-1.144-0.021-2.08-0.025-2.452 0.02l0.238 1.986zm6.465 0.114c2.987 0.101 6.323 0.238 8.532 0.335l0.088-1.998c-2.213-0.097-5.556-0.235-8.553-0.336l-0.067 1.999zm-3.342 21.713 7.563 0.388 0.102-1.998-7.562-0.388-0.103 1.998zm1.047 8.004 3.891-1.178-0.579-1.914-3.892 1.178 0.58 1.914zm5.658-9.031-2.966 6.48 1.819 0.832 2.965-6.48-1.818-0.832zm0.858 1.415 2.161 0.11 0.102-1.997-2.161-0.111-0.102 1.998zm2.161 0.11 5.402 0.277 0.102-1.997-5.402-0.277-0.102 1.997zm-4.786 6.328 6.436-1.947-0.579-1.915-6.436 1.948 0.579 1.914zm6.436-1.947 4.341-1.314-0.579-1.914-4.341 1.313 0.579 1.915zm-2.558-5.095 1.31 4.421 1.917-0.568-1.309-4.421-1.918 0.568zm-6.234 26.578 3.526 1.032 0.562-1.919-3.526-1.033-0.562 1.92zm4.752 0.398 1.67-4.845-1.89-0.652-1.671 4.845 1.891 0.652zm1.67-4.845 1.566-4.542-1.89-0.652-1.566 4.542 1.89 0.652zm-0.324-4.54 1.529 4.402 1.889-0.656-1.528-4.402-1.89 0.656zm1.529 4.402 1.631 4.695 1.889-0.656-1.631-4.695-1.889 0.656zm7.431-1.623-6.532 0.296 0.091 1.998 6.532-0.296-0.091-1.998zm-6.532 0.296-3.094 0.14 0.09 1.998 3.095-0.14-0.091-1.998zm-3.094 0.14-5.359 0.244 0.091 1.998 5.358-0.244-0.09-1.998zm-5.078 20.198 8.728-2.126-0.474-1.943-8.727 2.126 0.473 1.943zm7.491-3.097v11.538h2v-11.538h-2zm1.204 10.559-8.727-1.822-0.409 1.958 8.728 1.822 0.408-1.958zm5.069-6.612v4.858h2v-4.858h-2zm-15.254 30.274 0.66-10.613-1.996-0.124-0.661 10.613 1.997 0.124zm-1.03-9.954 14.183 13.6 1.384-1.444-14.183-13.599-1.384 1.443zm3.405 8.29 2.878 2.756 1.383-1.444-2.877-2.757-1.384 1.445zm-1.786 21.326-2.622-6.47-1.853 0.751 2.621 6.47 1.854-0.751zm-3.93-5.17 5.477 2.258 0.763-1.849-5.477-2.258-0.763 1.849zm5.477 2.258 5.155 2.126 0.762-1.849-5.154-2.126-0.763 1.849zm4.614 1.589 2.651 6.314 1.844-0.774-2.651-6.314-1.844 0.774zm3.942 4.997-5.811-2.305-0.737 1.86 5.81 2.304 0.738-1.859zm-5.811-2.305-4.85-1.923-0.737 1.859 4.85 1.924 0.737-1.86zm-4.643-8.98 1.328 4.084 1.902-0.618-1.328-4.084-1.902 0.618zm1.328 4.084 1.995 6.135 1.902-0.618-1.995-6.135-1.902 0.618zm1.995 6.135 1.547 4.756 1.902-0.618-1.547-4.756-1.902 0.618zm-3.809 22.529-2.826-3.939-1.625 1.166 2.827 3.939 1.624-1.166zm-2.826-3.939-3.185-4.438-1.625 1.167 3.185 4.437 1.625-1.166zm-4.735 2.842 4.218-1.303-0.591-1.911-4.218 1.303 0.591 1.911zm4.218-1.303 9.768-3.019-0.59-1.911-9.769 3.019 0.591 1.911zm8.505-3.723 1.2 4.623 1.936-0.503-1.2-4.623-1.936 0.503zm-16.488 19.018 12.033 3.627 0.577-1.914-12.032-3.628-0.578 1.915zm12.033 3.627 2.329 0.703 0.577-1.915-2.329-0.702-0.577 1.914zm2.217 1.075-2.329-0.702-0.578 1.915 2.329 0.702 0.578-1.915zm-2.329-0.702-12.033-3.627-0.577 1.914 12.032 3.628 0.578-1.915zm-13.312 1.329 7.224 0.618 0.17-1.993-7.223-0.618-0.171 1.993zm6.663 0.385 4.553 3.856 1.293-1.527-4.554-3.856-1.292 1.527zm4.553 3.856 2.024 1.714 1.293-1.527-2.024-1.714-1.293 1.527zm2.229-9.476-0.69 2.287 1.915 0.578 0.69-2.288-1.915-0.577zm-0.69 2.287-0.689 2.288 1.914 0.577 0.69-2.287-1.915-0.578zm-0.689 2.288-1.161 3.849 1.915 0.577 1.16-3.849-1.914-0.577zm-1.161 3.849-1.124 3.728 1.915 0.577 1.124-3.728-1.915-0.577zm-2.827 18.629-1.884-5.47-1.891 0.651 1.884 5.47 1.891-0.651zm-3.196-6.075-3.783 1.491 0.733 1.86 3.783-1.49-0.733-1.861zm-3.783 1.491-2.955 1.164 0.733 1.861 2.955-1.165-0.733-1.86zm-2.899 3.045 4.145 1.353 0.621-1.901-4.145-1.353-0.621 1.901zm5.359-0.024-1.189-2.518-1.809 0.854 1.19 2.518 1.808-0.854zm-1.189-2.518-1.523-3.223-1.809 0.854 1.523 3.223 1.809-0.854zm-2.767-3.737-7.069 2.548 0.678 1.881 7.069-2.547-0.678-1.882zm10.537-237.82-4.999 2.026 0.752 1.854 4.998-2.026-0.751-1.854zm-4.999 2.026-4.373 1.773 0.751 1.854 4.374-1.773-0.752-1.854zm-4.373 1.773-4.53 1.836 0.752 1.854 4.529-1.836-0.751-1.854zm-3.241 3.171 2.765-6.188-1.826-0.816-2.765 6.188 1.826 0.816zm0.926-6.221 1.764 4.353 1.853-0.752-1.764-4.352-1.853 0.751zm1.764 4.353 1.703 4.202 1.854-0.751-1.704-4.203-1.853 0.752zm3.543 4.234 2.67-5.975-1.826-0.816-2.67 5.975 1.826 0.816zm2.67-5.975 2.289-5.121-1.826-0.816-2.289 5.121 1.826 0.816zm-15.759 275.43-10.958-0.821-0.149 1.994 10.958 0.821 0.149-1.994zm-11.738 0.885 5.798 5.769 1.411-1.418-5.798-5.769-1.411 1.418zm5.798 5.769 5.464 5.435 1.41-1.418-5.463-5.435-1.411 1.418zm2.593-3.318-2.475 1.8 1.175 1.618 2.476-1.8-1.176-1.618zm-2.475 1.8-2.333 1.695 1.176 1.618 2.332-1.695-1.175-1.618zm-17.142 13.21 5.917 5.066 1.3-1.519-5.916-5.066-1.301 1.519zm5.917 5.066 3.468 2.97 1.301-1.519-3.469-2.97-1.3 1.519zm3.468 2.97 2.233 1.912 1.301-1.519-2.233-1.912-1.301 1.519zm2.567-4.038-2.617 2.564 1.4 1.429 2.617-2.564-1.4-1.429zm-2.617 2.564-1.715 1.681 1.399 1.428 1.716-1.68-1.4-1.429zm-1.559-7.207-2.115 4.528 1.812 0.847 2.115-4.528-1.812-0.847zm-2.115 4.528-2.292 4.907 1.812 0.846 2.292-4.906-1.812-0.847zm-9.925 12.66-0.908 3.729 1.943 0.473 0.908-3.729-1.943-0.473zm-0.908 3.729-1.063 4.363 1.943 0.474 1.063-4.364-1.943-0.473zm-0.118 3.6-3.378 0.09 0.054 2 3.377-0.09-0.053-2zm-4.039 1.816 7.174 6.795 1.375-1.452-7.173-6.795-1.376 1.452zm-0.419-8.679c0.168 0.11 0.754 0.596 1.671 1.395 0.884 0.77 2.009 1.771 3.208 2.848l1.336-1.488c-1.201-1.079-2.335-2.088-3.23-2.868-0.862-0.751-1.577-1.356-1.891-1.561l-1.094 1.674zm4.879 4.243c2.224 1.998 4.691 4.247 6.32 5.742l1.352-1.474c-1.632-1.498-4.105-3.752-6.336-5.756l-1.336 1.488zm-16.517 14.485 5.544 5.159 1.362-1.465-5.544-5.158-1.362 1.464zm-4.344 6.804 3.738 1.6 0.787-1.839-3.738-1.599-0.787 1.838zm10.14-3.281-6.437 3.058 0.858 1.807 6.437-3.058-0.858-1.807zm-0.252 1.636 1.584 1.473 1.362-1.464-1.584-1.474-1.362 1.465zm1.584 1.473 3.96 3.685 1.363-1.464-3.961-3.685-1.362 1.464zm-7.733 1.772 6.182 2.645 0.787-1.839-6.183-2.645-0.786 1.839zm6.182 2.645 4.169 1.783 0.787-1.838-4.169-1.784-0.787 1.839zm1.315-5.548-1.839 4.23 1.834 0.797 1.839-4.229-1.834-0.798zm-21.86 16.353 2.037 3.057 1.665-1.109-2.038-3.058-1.664 1.11zm3.384 3.36 4.394-2.638-1.029-1.715-4.394 2.638 1.029 1.715zm4.394-2.638 4.119-2.473-1.029-1.715-4.119 2.473 1.029 1.715zm2.67-3.686-1.658 4.354 1.869 0.712 1.658-4.354-1.869-0.712zm-1.658 4.354-1.769 4.645 1.869 0.712 1.769-4.645-1.869-0.712zm6.736 3.533-5.194-3.971-1.215 1.589 5.194 3.971 1.215-1.589zm-5.194-3.971-2.461-1.882-1.215 1.589 2.461 1.882 1.215-1.589zm-2.461-1.882-4.261-3.258-1.215 1.589 4.261 3.258 1.215-1.589zm-16.873 12.208 8.052 3.982 0.887-1.793-8.052-3.982-0.887 1.793zm7.729 2.443-7.417 8.839 1.532 1.285 7.417-8.839-1.532-1.285zm-5.865 8.863-5.514-7.006-1.572 1.237 5.515 7.006 1.571-1.237zm8.133-1.807-3.123 3.721 1.532 1.286 3.123-3.722-1.532-1.285zm-31.145 13.385 7.328-7.705-1.449-1.379-7.329 7.706 1.45 1.378zm5.609-8.286 2.123 19.534 1.988-0.216-2.123-19.534-1.988 0.216zm-2.72 8.538 0.433 3.962 1.988-0.217-0.432-3.962-1.989 0.217zm-15.076 15.189 2.15-6.642-1.902-0.616-2.151 6.642 1.903 0.616zm0.313-6.487 2.743 5.251 1.773-0.926-2.744-5.251-1.772 0.926zm2.743 5.251 2.583 4.942 1.772-0.926-2.582-4.942-1.773 0.926zm2.514 4.183-2.028 6.54 1.91 0.592 2.028-6.54-1.91-0.592zm-0.193 6.361-2.97-5.5-1.76 0.95 2.97 5.5 1.76-0.95zm-2.97-5.5-2.479-4.592-1.76 0.951 2.479 4.591 1.76-0.95zm2.216-9.864-1.608 3.982 1.855 0.749 1.608-3.982-1.855-0.749zm-1.608 3.982-2.415 5.982 1.854 0.749 2.416-5.982-1.855-0.749zm-2.415 5.982-1.873 4.638 1.855 0.748 1.872-4.637-1.854-0.749zm-17.399 14.81 0.366-4.835-1.994-0.151-0.367 4.834 1.995 0.152zm0.366-4.835 0.413-5.446-1.994-0.151-0.413 5.446 1.994 0.151zm-5.454-0.866 4.069 1.712 0.776-1.843-4.069-1.713-0.776 1.844zm4.069 1.712 9.423 3.967 0.776-1.843-9.423-3.967-0.776 1.843zm8.908 2.616-2.052 4.313 1.806 0.859 2.052-4.313-1.806-0.859zm-24.854 3.97 6.885 10.514 1.673-1.096-6.885-10.514-1.673 1.096zm6.885 10.514 1.333 2.034 1.673-1.095-1.333-2.035-1.673 1.096zm1.007 2.248-1.332-2.035-1.674 1.096 1.333 2.034 1.673-1.095zm-1.332-2.035-6.886-10.514-1.673 1.096 6.885 10.514 1.674-1.096zm-11.052-7.539 5.137 5.117 1.411-1.417-5.136-5.117-1.412 1.417zm4.857 4.577 1.009 5.882 1.971-0.339-1.009-5.881-1.971 0.338zm1.009 5.882 0.449 2.613 1.971-0.338-0.449-2.614-1.971 0.339zm7.798-5.827-1.998 1.309 1.096 1.673 1.998-1.309-1.096-1.673zm-1.998 1.309-1.999 1.309 1.096 1.673 1.999-1.309-1.096-1.673zm-1.999 1.309-3.363 2.203 1.096 1.673 3.363-2.203-1.096-1.673zm-3.363 2.203-3.257 2.133 1.095 1.673 3.258-2.133-1.096-1.673zm-14.141 12.452 2.074-5.401-1.868-0.716-2.073 5.401 1.867 0.716zm1.457-6.708-3.856-1.289-0.634 1.897 3.856 1.289 0.634-1.897zm-3.856-1.289-3.012-1.008-0.635 1.897 3.013 1.008 0.634-1.897zm-4.178 0.469 2.305 3.702 1.698-1.058-2.306-3.701-1.697 1.057zm4.121 3.427 0.707-2.694-1.934-0.508-0.707 2.694 1.934 0.508zm0.707-2.694 0.905-3.448-1.934-0.507-0.905 3.447 1.934 0.508zm0.283-4.64-7.053-2.593-0.69 1.877 7.053 2.593 0.69-1.877zm160.94-175.4-5.131-1.661-0.616 1.903 5.131 1.661 0.616-1.903zm-5.131-1.661-4.49-1.453-0.616 1.902 4.49 1.454 0.616-1.903zm-4.49-1.453-4.65-1.505-0.616 1.902 4.65 1.505 0.616-1.902zm-4.521 0.345 6.096-2.963-0.874-1.798-6.096 2.963 0.874 1.798zm4.708-4.17-1.446 4.468 1.902 0.616 1.447-4.468-1.903-0.616zm-1.446 4.468-1.397 4.314 1.903 0.616 1.396-4.314-1.902-0.616zm-8e-3 5.522 5.886-2.861-0.874-1.799-5.887 2.861 0.875 1.799zm5.886-2.861 5.045-2.452-0.874-1.799-5.045 2.452 0.874 1.799zm-189.25 200.72-7.887-7.653-1.393 1.436 7.887 7.653 1.393-1.436zm-9.579-6.843 0.754 8.144 1.992-0.184-0.754-8.144-1.992 0.184zm0.754 8.144 0.711 7.674 1.991-0.184-0.71-7.674-1.992 0.184zm4.116-0.884-3.053-0.206-0.134 1.996 3.053 0.205 0.134-1.995zm-3.053-0.206-2.877-0.193-0.134 1.995 2.877 0.194 0.134-1.996zm-21.625-0.845 1.295 7.681 1.972-0.332-1.295-7.681-1.972 0.332zm1.295 7.681 0.759 4.503 1.973-0.333-0.76-4.502-1.972 0.332zm0.759 4.503 0.489 2.898 1.972-0.332-0.488-2.899-1.973 0.333zm4.559-1.455-3.652 0.291 0.159 1.994 3.652-0.291-0.159-1.994zm-3.652 0.291-2.394 0.191 0.159 1.994 2.394-0.191-0.159-1.994zm3.422-6.531-4.526 2.12 0.848 1.812 4.526-2.121-0.848-1.811zm-4.526 2.12-4.904 2.298 0.848 1.811 4.904-2.297-0.848-1.812zm-15.732 3.357-3.087 2.281 1.188 1.609 3.087-2.281-1.188-1.609zm-3.087 2.281-3.613 2.668 1.189 1.609 3.612-2.668-1.188-1.609zm-2.398 2.688-2.65-2.095-1.241 1.569 2.65 2.095 1.241-1.569zm-4.264-1.194 1.152 9.813 1.986-0.233-1.151-9.813-1.987 0.233zm5.241-6.931c0.058 0.192 0.197 0.94 0.389 2.142 0.185 1.158 0.406 2.647 0.636 4.242l1.98-0.286c-0.231-1.598-0.454-3.099-0.642-4.272-0.18-1.129-0.341-2.051-0.451-2.41l-1.912 0.584zm1.025 6.384c0.427 2.959 0.88 6.267 1.172 8.458l1.983-0.265c-0.294-2.196-0.747-5.511-1.175-8.479l-1.98 0.286zm-21.962 0.534 0.95 7.513 1.984-0.251-0.949-7.513-1.985 0.251zm-7.695 2.439 1.845 3.624 1.782-0.908-1.845-3.623-1.782 0.907zm9.887 3.98-6.902-1.778-0.499 1.936 6.902 1.779 0.499-1.937zm-1.242 1.094 0.272 2.146 1.984-0.251-0.272-2.146-1.984 0.251zm0.272 2.146 0.678 5.367 1.984-0.251-0.678-5.367-1.984 0.251zm-7.072-3.596 3.051 5.992 1.782-0.907-3.051-5.993-1.782 0.908zm3.051 5.992 2.057 4.042 1.782-0.908-2.057-4.041-1.782 0.907zm4.564-3.415-4.122 2.068 0.897 1.787 4.122-2.067-0.897-1.788zm-27.26-1.457-0.396 3.652 1.989 0.216 0.395-3.653-1.988-0.215zm0.444 4.748 5.064 0.791 0.308-1.976-5.063-0.791-0.309 1.976zm5.064 0.791 4.747 0.742 0.308-1.976-4.747-0.742-0.308 1.976zm4.412-1.118-4.064 2.28 0.978 1.744 4.064-2.28-0.978-1.744zm-4.064 2.28-4.335 2.432 0.979 1.744 4.334-2.432-0.978-1.744zm2.906 7.029-1.441-6.378-1.951 0.441 1.442 6.378 1.95-0.441zm-1.441-6.378-0.684-3.021-1.95 0.441 0.683 3.021 1.951-0.441zm-0.684-3.021-1.182-5.232-1.951 0.441 1.183 5.232 1.95-0.441zm-20.775-1.442 3.628 8.217 1.83-0.809-3.629-8.216-1.829 0.808zm4.367 6.828-11.358 2.032 0.352 1.969 11.358-2.032-0.352-1.969zm-10.182 3.045 0.256-8.912-1.999-0.057-0.257 8.911 2 0.058zm7.401 3.825-4.782 0.855 0.352 1.969 4.782-0.855-0.352-1.969zm-32.487-9.685 10.564-1.219-0.229-1.987-10.564 1.219 0.229 1.987zm9.617-2.766-10.89 16.355 1.665 1.109 10.89-16.356-1.665-1.108zm-7.56 4.811-2.207 3.318 1.665 1.108 2.207-3.318-1.665-1.108zm-21.308 1.997 5.908-3.72-1.066-1.692-5.907 3.72 1.065 1.692zm4.398-4.779-1.259 5.789 1.954 0.425 1.259-5.789-1.954-0.425zm-1.259 5.789-1.185 5.449 1.954 0.425 1.185-5.449-1.954-0.425zm-0.752 4.822-5.748 3.721 1.087 1.679 5.748-3.721-1.087-1.679zm-4.225 4.76 1.246-6.126-1.96-0.399-1.246 6.126 1.96 0.399zm1.246-6.126 1.039-5.113-1.96-0.398-1.039 5.112 1.96 0.399zm8.023-6.151-3.787 2.026 0.944 1.764 3.786-2.027-0.943-1.763zm-3.787 2.026-5.688 3.044 0.944 1.763 5.688-3.043-0.944-1.764zm-5.688 3.044-4.409 2.36 0.943 1.763 4.41-2.36-0.944-1.763zm-22.847 0.218 3.379-3.477-1.434-1.394-3.379 3.476 1.434 1.395zm3.379-3.477 3.808-3.916-1.434-1.394-3.808 3.916 1.434 1.394zm-3.631-4.16 2.026 3.922 1.777-0.917-2.026-3.923-1.777 0.918zm2.026 3.922 4.691 9.085 1.777-0.918-4.691-9.084-1.777 0.917zm5.162 7.717-4.34 1.996 0.836 1.817 4.339-1.996-0.835-1.817zm-21.624-12.881-1.452 12.483 1.986 0.231 1.452-12.483-1.986-0.231zm-1.452 12.483-0.281 2.416 1.986 0.232 0.281-2.417-1.986-0.231zm-0.668 2.371 0.281-2.416-1.987-0.231-0.281 2.416 1.987 0.231zm0.281-2.416 1.452-12.483-1.986-0.231-1.453 12.483 1.987 0.231zm-3.652-12.869 0.664 7.219 1.991-0.183-0.663-7.219-1.992 0.183zm0.795 6.626-2.994 5.161 1.73 1.004 2.994-5.162-1.73-1.003zm-2.994 5.161-1.331 2.294 1.73 1.004 1.331-2.294-1.73-1.004zm9.72 0.526-2.374-0.276-0.231 1.986 2.373 0.276 0.232-1.986zm-2.374-0.276-2.373-0.277-0.231 1.987 2.373 0.276 0.231-1.986zm-2.373-0.277-3.993-0.464-0.231 1.987 3.993 0.464 0.231-1.987zm-3.993-0.464-3.868-0.45-0.231 1.987 3.868 0.45 0.231-1.987zm-18.835 0.497 5.052-2.818-0.974-1.747-5.052 2.818 0.974 1.747zm5.417-4.216-2.134-3.461-1.702 1.049 2.133 3.461 1.703-1.049zm-2.134-3.461-1.667-2.704-1.702 1.049 1.667 2.704 1.702-1.049zm-3.508-2.318-0.603 4.319 1.981 0.276 0.602-4.318-1.98-0.277zm0.968 5.272 2.269-1.615-1.16-1.629-2.269 1.614 1.16 1.63zm2.269-1.615 2.904-2.066-1.16-1.63-2.904 2.067 1.16 1.629zm3.191-3.381-3.753-6.51-1.732 0.998 3.752 6.511 1.733-0.999zm235.96-31.503-2.874-4.563-1.693 1.066 2.875 4.563 1.692-1.066zm-2.874-4.563-2.515-3.993-1.693 1.066 2.515 3.993 1.693-1.066zm-2.515-3.993-2.606-4.136-1.692 1.066 2.605 4.136 1.693-1.066zm-3.692-2.632 6.578 1.632 0.482-1.941-6.579-1.632-0.481 1.941zm6.286-0.184-3.974 2.503 1.066 1.692 3.974-2.503-1.066-1.692zm-3.974 2.503-3.836 2.417 1.066 1.692 3.836-2.417-1.066-1.692zm-3.544 4.233 6.352 1.577 0.481-1.942-6.351-1.576-0.482 1.941zm6.352 1.577 5.444 1.351 0.482-1.942-5.445-1.351-0.481 1.942zm-275.33 32.11-1.067-10.937-1.99 0.194 1.066 10.937 1.991-0.194zm-2.881-11.414-4.691 6.7 1.638 1.147 4.691-6.699-1.638-1.148zm-4.691 6.7-4.421 6.313 1.638 1.147 4.421-6.313-1.638-1.147zm3.711 1.987-2.196-2.131-1.393 1.435 2.197 2.131 1.392-1.435zm-2.196-2.131-2.07-2.008-1.392 1.435 2.069 2.008 1.393-1.435zm-15.948-14.629-3.979 6.696 1.719 1.022 3.979-6.696-1.719-1.022zm-3.979 6.696-2.333 3.925 1.719 1.022 2.333-3.925-1.719-1.022zm-2.333 3.925-1.502 2.528 1.72 1.021 1.501-2.527-1.719-1.022zm4.417 1.839-2.973-2.139-1.168 1.623 2.973 2.14 1.168-1.624zm-2.973-2.139-1.95-1.403-1.168 1.623 1.95 1.403 1.168-1.623zm6.833-2.769-4.823-1.31-0.524 1.93 4.823 1.31 0.524-1.93zm-4.823-1.31-5.226-1.419-0.524 1.93 5.226 1.419 0.524-1.93zm-14.17-7.613-3.83-0.257-0.134 1.996 3.83 0.257 0.134-1.996zm-3.83-0.257-4.481-0.3-0.134 1.995 4.481 0.301 0.134-1.996zm-3.568 0.5-0.666-3.312-1.961 0.394 0.667 3.313 1.96-0.395zm-2.479-3.668-5.468 8.23 1.666 1.107 5.468-8.23-1.666-1.107zm8.479-1.898c-0.08 0.185-0.458 0.845-1.088 1.885-0.608 1.003-1.402 2.283-2.258 3.648l1.694 1.062c0.858-1.368 1.659-2.658 2.274-3.673 0.593-0.978 1.066-1.786 1.215-2.13l-1.837-0.792zm-3.346 5.533c-1.588 2.533-3.382 5.348-4.576 7.209l1.684 1.08c1.196-1.865 2.994-4.686 4.586-7.227l-1.694-1.062zm-17.097-13.795-4.134 6.345 1.676 1.091 4.134-6.345-1.676-1.091zm-7.447-3.116-0.936 3.957 1.946 0.46 0.936-3.956-1.946-0.461zm4.967 9.429-4.114-5.819-1.633 1.154 4.114 5.82 1.633-1.155zm-1.654 0.032-1.181 1.812 1.676 1.092 1.181-1.813-1.676-1.091zm-1.181 1.812-2.953 4.532 1.676 1.092 2.953-4.532-1.676-1.092zm-3.068-7.316-1.549 6.544 1.947 0.46 1.548-6.544-1.946-0.46zm-1.549 6.544-1.044 4.413 1.946 0.46 1.045-4.413-1.947-0.46zm5.691 0.346-4.482-1.088-0.472 1.944 4.482 1.088 0.472-1.944zm-19.851-18.74-2.664 2.531 1.378 1.45 2.663-2.531-1.377-1.45zm-2.732 3.909 3.351 3.878 1.513-1.307-3.35-3.878-1.514 1.307zm3.351 3.878 3.141 3.636 1.513-1.308-3.141-3.635-1.513 1.307zm4.088 2-4.574-0.889-0.381 1.964 4.574 0.889 0.381-1.964zm-4.574-0.889-4.879-0.948-0.381 1.964 4.879 0.948 0.381-1.964zm-2.328 7.241 3.024-5.796-1.773-0.925-3.024 5.796 1.773 0.925zm3.024-5.796 1.433-2.747-1.773-0.925-1.433 2.747 1.773 0.925zm1.433-2.747 2.481-4.756-1.773-0.925-2.481 4.756 1.773 0.925zm-14.915-14.535-2.545 8.614 1.918 0.567 2.545-8.614-1.918-0.567zm-1.084 8.033-9.977-5.796-1.005 1.73 9.978 5.795 1.004-1.729zm-9.736-4.262 5.959-6.632-1.488-1.337-5.958 6.632 1.487 1.337zm3.172 7.703-4.201-2.44-1.004 1.73 4.201 2.44 1.004-1.73zm-18.517-28.396 8.846 5.902 1.11-1.664-8.846-5.902-1.11 1.664zm9.125 4.109-18.883 5.434 0.553 1.922 18.883-5.434-0.553-1.922zm-8.878-1.219-3.83 1.104 0.554 1.922 3.83-1.104-0.554-1.922zm-17.544-12.255 6.911 0.982 0.282-1.98-6.912-0.983-0.281 1.981zm6.444-0.802-4.704 3.602 1.216 1.588 4.704-3.602-1.216-1.588zm-4.704 3.602-4.427 3.389 1.216 1.588 4.427-3.389-1.216-1.588zm-3.691 3.192-6.791-0.88-0.257 1.984 6.791 0.879 0.257-1.983zm-6.301 0.898 4.912-3.867-1.237-1.572-4.912 3.867 1.237 1.572zm4.912-3.867 4.099-3.228-1.237-1.571-4.099 3.227 1.237 1.572zm10.097 0.496-4.199-0.903-0.42 1.955 4.198 0.903 0.421-1.955zm-4.199-0.903-6.307-1.357-0.42 1.956 6.307 1.356 0.42-1.955zm-6.307-1.357-4.889-1.051-0.42 1.955 4.889 1.052 0.42-1.956zm-17.568-14.608 4.826-0.466-0.192-1.991-4.826 0.466 0.192 1.991zm4.826-0.466 5.437-0.525-0.192-1.991-5.437 0.525 0.192 1.991zm-0.079-5.522-0.991 4.302 1.949 0.449 0.991-4.302-1.949-0.449zm-0.991 4.302-2.297 9.963 1.949 0.449 2.297-9.963-1.949-0.449zm-1.053 9.224-4.601-1.284-0.538 1.926 4.601 1.285 0.538-1.927zm-8.164-23.809-9.181 8.583 1.366 1.461 9.181-8.583-1.366-1.461zm-9.181 8.583-1.776 1.661 1.365 1.461 1.777-1.661-1.366-1.461zm-2.042 1.377 1.777-1.662-1.366-1.46-1.777 1.661 1.366 1.461zm1.777-1.662 9.18-8.582-1.366-1.461-9.18 8.582 1.366 1.461zm5.537-12.178-4.163 5.936 1.638 1.149 4.162-5.936-1.637-1.149zm-3.679 5.568-5.622 2.001 0.671 1.884 5.621-2-0.67-1.885zm-5.622 2.001-2.499 0.889 0.671 1.885 2.499-0.89-0.671-1.884zm7.074 6.687-1.631-1.746-1.461 1.366 1.631 1.745 1.461-1.365zm-1.631-1.746-1.632-1.745-1.461 1.366 1.632 1.745 1.461-1.366zm-1.632-1.745-2.745-2.937-1.461 1.366 2.745 2.937 1.461-1.366zm-2.745-2.937-2.66-2.844-1.46 1.366 2.659 2.844 1.461-1.366zm-14.689-11.801 5.677 1.118 0.386-1.962-5.676-1.118-0.387 1.962zm6.859 0.287 0.611-4.019-1.978-0.301-0.611 4.02 1.978 0.3zm0.611-4.019 0.477-3.141-1.978-0.3-0.477 3.14 1.978 0.301zm-1.178-4.037-3.252 2.905 1.332 1.491 3.252-2.904-1.332-1.492zm-2.671 4.647 2.775 0.236 0.17-1.993-2.775-0.236-0.17 1.993zm2.775 0.236 3.552 0.301 0.169-1.992-3.551-0.302-0.17 1.993zm4.62-0.516 1.349-7.392-1.968-0.359-1.348 7.393 1.967 0.358zm200.35 128.56 0.759-5.34-1.98-0.281-0.759 5.34 1.98 0.281zm0.759-5.34 0.664-4.672-1.981-0.281-0.663 4.672 1.98 0.281zm0.664-4.672 0.687-4.839-1.98-0.281-0.688 4.839 1.981 0.281zm-1.114-4.395 3.962 5.5 1.623-1.17-3.963-5.499-1.622 1.169zm4.914 3.925-4.65-0.66-0.281 1.98 4.65 0.66 0.281-1.98zm-4.65-0.66-4.489-0.638-0.281 1.98 4.489 0.638 0.281-1.98zm-5.441 0.936 3.825 5.31 1.623-1.169-3.826-5.31-1.622 1.169zm3.825 5.31 3.28 4.552 1.622-1.169-3.279-4.552-1.623 1.169zm-229.85-151.8 6.202-9.072-1.651-1.128-6.202 9.071 1.651 1.129zm5.116-10.602-7.897 2.127 0.52 1.931 7.897-2.126-0.52-1.932zm-7.897 2.127-7.442 2.004 0.52 1.931 7.442-2.004-0.52-1.931zm1.571 3.906-0.317-3.044-1.989 0.207 0.316 3.044 1.99-0.207zm-0.317-3.044-0.298-2.868-1.989 0.207 0.298 2.868 1.989-0.207zm-2.841-21.454-7.349 2.581 0.663 1.887 7.349-2.581-0.663-1.887zm-7.349 2.581-4.308 1.513 0.663 1.887 4.308-1.513-0.663-1.887zm-4.308 1.513-2.773 0.974 0.662 1.887 2.774-0.974-0.663-1.887zm2.208 4.245-0.907-3.549-1.938 0.495 0.907 3.549 1.938-0.495zm-0.907-3.549-0.595-2.327-1.938 0.495 0.595 2.327 1.938-0.495zm7.017 2.262-2.858-4.099-1.641 1.143 2.858 4.1 1.641-1.144zm-2.858-4.099-3.097-4.443-1.641 1.144 3.097 4.442 1.641-1.143zm-5.981-14.933-2.772-2.655-1.383 1.444 2.772 2.655 1.383-1.444zm-2.772-2.655-3.243-3.107-1.383 1.444 3.243 3.107 1.383-1.444zm-3.056-1.907 1.615-2.967-1.757-0.956-1.615 2.967 1.757 0.956zm0.453-4.404-9.476 2.802 0.568 1.918 9.475-2.802-0.567-1.918zm7.72 3.987c-0.18 0.09-0.893 0.353-2.045 0.747-1.109 0.379-2.54 0.85-4.072 1.348l0.618 1.902c1.536-0.499 2.977-0.974 4.101-1.358 1.082-0.369 1.963-0.685 2.298-0.854l-0.9-1.785zm-6.117 2.095c-2.843 0.923-6.026 1.931-8.136 2.592l0.598 1.908c2.114-0.662 5.304-1.672 8.156-2.598l-0.618-1.902zm-4.257-21.552-7.242 2.212 0.584 1.913 7.242-2.213-0.584-1.912zm-3.711-7.169-3.258 2.433 1.197 1.602 3.258-2.433-1.197-1.602zm-2.242 10.419 0.58-7.103-1.994-0.163-0.58 7.103 1.994 0.163zm-1.289-1.038-2.069 0.632 0.584 1.913 2.069-0.632-0.584-1.913zm-2.069 0.632-5.174 1.58 0.585 1.913 5.173-1.58-0.584-1.913zm2.342-7.58-5.387 4.024 1.197 1.603 5.387-4.025-1.197-1.602zm-5.387 4.024-3.633 2.715 1.197 1.602 3.633-2.714-1.197-1.603zm4.141 3.919-2.738-3.711-1.609 1.187 2.738 3.711 1.609-1.187zm-3.194-27.112-3.667 0.231 0.126 1.996 3.666-0.231-0.125-1.996zm-4.604 1.244 0.08 5.125 2-0.032-0.08-5.124-2 0.031zm0.08 5.125 0.076 4.804 1.999-0.032-0.075-4.804-2 0.032zm1.852 4.158-2.937-3.618-1.553 1.261 2.937 3.617 1.553-1.26zm-2.937-3.618-3.133-3.858-1.553 1.26 3.133 3.859 1.553-1.261zm-6.433 4.058 6.039-2.504-0.766-1.847-6.039 2.504 0.766 1.847zm6.039-2.504 2.862-1.186-0.766-1.848-2.862 1.187 0.766 1.847zm2.862-1.186 4.955-2.055-0.766-1.847-4.955 2.054 0.766 1.848zm-2.108-20.719-7.481 4.972 1.107 1.666 7.481-4.972-1.107-1.666zm-5.987 5.464-3.9319-10.848-1.8803 0.681 3.9312 10.848 1.881-0.681zm-4.7307-9.517 8.8257-1.261-0.283-1.98-8.8255 1.261 0.2828 1.98zm-2.512 7.943-1.6554-4.567-1.8803 0.681 1.6554 4.568 1.8803-0.682zm4.0257-33.66 2.995 10.203 1.919-0.563-2.995-10.203-1.919 0.563zm4.36 9.007-17.968-7.953-0.8094 1.829 17.968 7.953 0.81-1.829zm-6.0262-6.632-3.645-1.612-0.8086 1.829 3.645 1.612 0.8086-1.829zm-5.5875-20.659 4.6696 5.19 1.4867-1.338-4.6696-5.19-1.4867 1.338zm5.4564 3.522-5.9189-0.258-0.0869 1.998 5.9189 0.258 0.0869-1.998zm-5.9189-0.258-5.5707-0.242-0.0869 1.998 5.5707 0.242 0.0869-1.998zm-4.8792 0.079-4.6434-5.033-1.4699 1.356 4.6434 5.033 1.4699-1.356zm-5.4082-3.355 6.2483 0.187 0.0597-1.999-6.2482-0.187-0.0598 1.999zm6.2483 0.187 5.2151 0.156 0.0598-2-5.2152-0.155-0.0597 1.999zm7.4245 6.861-2.6401-3.387-1.5775 1.229 2.6401 3.387 1.5775-1.229zm-2.6401-3.387-3.9658-5.089-1.5775 1.23 3.9658 5.088 1.5775-1.229zm-3.9658-5.089-3.0744-3.944-1.5775 1.229 3.0744 3.945 1.5775-1.23zm-4.0956-22.478 3.9997 2.74 1.1303-1.65-3.9997-2.74-1.1303 1.65zm3.9997 2.74 4.5063 3.087 1.1303-1.65-4.5063-3.087-1.1303 1.65zm3.4833-4.285-3.5213 2.662 1.2062 1.596 3.5214-2.663-1.2063-1.595zm-3.5213 2.662-8.1555 6.167 1.2062 1.595 8.1555-6.166-1.2062-1.596zm-6.728 6.398-2.7037-3.937-1.6487 1.132 2.7036 3.938 1.6488-1.133zm9.0208-23.498-12.549 0.69 0.1097 1.997 12.549-0.69-0.1097-1.997zm-12.549 0.69-2.4288 0.133 0.1097 1.997 2.4288-0.133-0.1097-1.997zm-2.4501-0.255 2.4287-0.134-0.1097-1.997-2.4288 0.134 0.1098 1.997zm2.4287-0.134 12.549-0.689-0.1098-1.997-12.549 0.689 0.1097 1.997zm12.062-5.784-7.002 1.88 0.5187 1.931 7.002-1.88-0.5187-1.931zm-6.3951 1.908-5.5952-2.074-0.695 1.875 5.5951 2.074 0.6951-1.875zm-5.5952-2.074-2.4867-0.922-0.6951 1.876 2.4868 0.921 0.695-1.875zm1.1337 9.668-0.1311-2.385-1.997 0.109 0.1311 2.386 1.997-0.11zm-0.1311-2.385-0.131-2.386-1.997 0.11 0.131 2.385 1.997-0.109zm-0.131-2.386-0.2206-4.014-1.997 0.11 0.2206 4.014 1.997-0.11zm-0.2206-4.014-0.2136-3.888-1.997 0.11 0.2136 3.888 1.997-0.11zm-3.6892-18.477 3.635 4.5 1.5559-1.256-3.635-4.501-1.5559 1.257zm5.0747 4.622 3.0485-2.691-1.3235-1.499-3.0484 2.69 1.3234 1.5zm3.0485-2.691 2.3816-2.102-1.3235-1.499-2.3816 2.102 1.3235 1.499zm1.6877-3.851-4.3582 0.14 0.0643 1.999 4.3582-0.14-0.0643-1.999zm-5.0305 1.85 1.9766 1.961 1.4089-1.419-1.9766-1.962-1.4089 1.42zm1.9766 1.961 2.53 2.511 1.4089-1.419-2.53-2.511-1.4089 1.419zm3.8737 2.571 5.7788-4.804-1.2785-1.538-5.7788 4.804 1.2785 1.538zm71.128 227.18 4.009-3.608-1.338-1.486-4.009 3.608 1.338 1.486zm4.009-3.608 3.508-3.157-1.338-1.486-3.508 3.157 1.338 1.486zm3.508-3.157 3.632-3.269-1.337-1.487-3.633 3.27 1.338 1.486zm1.966-4.085-0.491 6.76 1.995 0.145 0.491-6.76-1.995-0.145zm1.25 6.164-3.142-3.491-1.487 1.338 3.142 3.491 1.487-1.338zm-3.142-3.491-3.034-3.37-1.486 1.338 3.033 3.37 1.487-1.338zm-4.774-2.774-0.474 6.527 1.994 0.145 0.475-6.527-1.995-0.145zm-0.474 6.527-0.407 5.595 1.995 0.145 0.406-5.595-1.994-0.145zm-78.827-265.68 10.596-2.912-0.53-1.928-10.596 2.912 0.53 1.928zm10.757-4.781-7.4002-3.483-0.8517 1.81 7.4002 3.483 0.8517-1.81zm-7.4002-3.483-6.9733-3.282-0.8517 1.81 6.9733 3.282 0.8517-1.81zm-1.3264 3.996 1.7263-2.527-1.6514-1.128-1.7264 2.527 1.6515 1.128zm1.7263-2.527 1.6267-2.381-1.6514-1.128-1.6267 2.381 1.6514 1.128zm11.702-18.205-7.2758-2.782-0.7142 1.868 7.2758 2.782 0.7142-1.868zm-7.2758-2.782-4.2648-1.63-0.7142 1.868 4.2648 1.63 0.7142-1.868zm-4.2648-1.63-2.746-1.05-0.7142 1.868 2.746 1.05 0.7142-1.868zm-1.0602 4.666 1.6023-3.295-1.7985-0.874-1.6024 3.294 1.7986 0.875zm1.6023-3.295 1.0506-2.159-1.7986-0.875-1.0505 2.16 1.7985 0.874zm3.8915 6.263 0.4696-4.976-1.9911-0.188-0.4697 4.976 1.9912 0.188zm0.4696-4.976 0.509-5.391-1.9912-0.188-0.5089 5.391 1.9911 0.188zm5.0903-15.259-0.3984-3.817-1.9892 0.207 0.3984 3.818 1.9892-0.208zm-0.3984-3.817-0.4663-4.467-1.9892 0.207 0.4663 4.467 1.9892-0.207zm-1.0997-3.431 3.1504-1.22-0.7223-1.865-3.1505 1.22 0.7224 1.865zm3.1928-3.068-9.0406-3.987-0.807 1.83 9.0405 3.987 0.8071-1.83zm3.313 8.033c-0.196-0.047-0.9103-0.308-2.0429-0.752-1.0915-0.428-2.4878-0.993-3.9785-1.604l-0.7586 1.851c1.4942 0.612 2.9013 1.181 4.0069 1.615 1.0646 0.417 1.9408 0.747 2.3055 0.834l0.4676-1.944zm-6.0214-2.356c-2.7662-1.134-5.8461-2.422-7.8832-3.282l-0.7776 1.843c2.0412 0.861 5.1278 2.152 7.9022 3.29l0.7586-1.851zm10.684-19.195-6.9558-2.994-0.7907 1.837 6.9555 2.994 0.791-1.837zm1.803-7.869-4.059-0.249-0.122 1.996 4.058 0.249 0.123-1.996zm-8.4463 6.5 5.0343-5.045-1.416-1.412-5.034 5.044 1.4157 1.413zm-0.3125-1.625-1.9874-0.855-0.7907 1.837 1.9874 0.855 0.7907-1.837zm-1.9874-0.855-4.9684-2.139-0.7907 1.837 4.9684 2.139 0.7907-1.837zm6.6872-4.269-6.7113-0.412-0.1226 1.996 6.7119 0.412 0.122-1.996zm-6.7113-0.412-4.5265-0.278-0.1226 1.996 4.5265 0.278 0.1226-1.996zm0.6265 5.666 0.31-4.601-1.9955-0.134-0.3099 4.601 1.9954 0.134zm15.089-22.75-2.947-2.194-1.194 1.604 2.947 2.194 1.194-1.604zm-4.317-2.027-3.251 3.962 1.546 1.269 3.251-3.962-1.546-1.269zm-3.251 3.962-3.048 3.714 1.546 1.269 3.048-3.714-1.546-1.269zm-1.275 4.369 0.097-4.659-1.999-0.041-0.098 4.658 2 0.042zm0.097-4.659 0.104-4.969-1.999-0.042-0.104 4.97 1.999 0.041zm-7.5312-1.062 6.2272 1.994 0.609-1.905-6.2263-1.994-0.6099 1.905zm6.2272 1.994 2.95 0.945 0.61-1.905-2.951-0.945-0.609 1.905zm2.95 0.945 5.108 1.635 0.61-1.905-5.108-1.635-0.61 1.905zm11.785-17.171-8.922-1.042-0.232 1.986 8.922 1.042 0.232-1.986zm-8.1 0.299 4.013-10.819-1.875-0.695-4.013 10.818 1.875 0.696zm2.543-10.32 7.549 4.744 1.064-1.694-7.549-4.743-1.064 1.693zm-7.052 4.437 1.69-4.555-1.875-0.696-1.69 4.555 1.875 0.696zm24.831-23.079-4.31 9.721 1.828 0.811 4.311-9.721-1.829-0.811zm-2.496 9.69-8.568-17.683-1.8 0.872 8.568 17.684 1.8-0.873zm-0.31-8.955-1.739-3.586-1.8 0.873 1.74 3.585 1.799-0.872zm9.092-19.374 0.208 6.978 1.999-0.06-0.208-6.978-1.999 0.06zm1.886 6.214-4.349-4.023-1.358 1.469 4.349 4.022 1.358-1.468zm-4.349-4.023-4.094-3.786-1.358 1.469 4.094 3.786 1.358-1.469zm-3.774-3.094-0.289-6.841-1.998 0.084 0.289 6.842 1.998-0.085zm-1.957-6.056 4.646 4.182 1.338-1.486-4.646-4.182-1.338 1.486zm4.646 4.182 3.878 3.49 1.338-1.486-3.878-3.49-1.338 1.486zm1.229 10.034 0.176-4.291-1.999-0.081-0.175 4.291 1.998 0.081zm0.176-4.291 0.263-6.445-1.998-0.082-0.264 6.446 1.999 0.081zm0.263-6.445 0.205-4.997-1.999-0.082-0.204 4.997 1.998 0.082zm11.407-19.798 1.28 4.676 1.929-0.528-1.281-4.676-1.928 0.528zm1.28 4.676 1.442 5.268 1.929-0.528-1.442-5.268-1.929 0.528zm5.428-1.018-4.408-0.245-0.111 1.997 4.408 0.245 0.111-1.997zm-4.408-0.245-10.209-0.567-0.111 1.997 10.209 0.567 0.111-1.997zm-9.269 0.533 0.482-4.752-1.99-0.202-0.482 4.752 1.99 0.202zm22.072-12.097-10.02-7.586-1.207 1.595 10.02 7.586 1.207-1.595zm-10.02-7.586-1.939-1.468-1.207 1.594 1.939 1.469 1.207-1.595zm-1.704-1.778 1.939 1.468 1.208-1.595-1.94-1.468-1.207 1.595zm1.939 1.468 10.02 7.586 1.207-1.595-10.019-7.586-1.208 1.595zm12.943 3.384-6.558-3.092-0.853 1.809 6.558 3.092 0.853-1.809zm-6.113-2.678-2.928-5.199-1.743 0.981 2.929 5.199 1.742-0.981zm-2.928-5.199-1.302-2.311-1.742 0.981 1.301 2.311 1.743-0.981zm-5.385 8.109 1.442-1.905-1.594-1.207-1.443 1.905 1.595 1.207zm1.442-1.905 1.442-1.905-1.594-1.207-1.442 1.905 1.594 1.207zm1.442-1.905 2.427-3.205-1.595-1.207-2.426 3.205 1.594 1.207zm2.427-3.205 2.35-3.105-1.594-1.207-2.351 3.105 1.595 1.207zm9.13-16.482-0.136 5.783 1.999 0.047 0.136-5.783-1.999-0.047zm0.883 6.807 4.066-0.082-0.041-2-4.065 0.082 0.04 2zm4.066-0.082 3.175-0.065-0.04-1.999-3.176 0.064 0.041 2zm3.777-1.848-3.416-2.71-1.243 1.567 3.416 2.71 1.243-1.567zm-5.034-1.841 0.24 2.775 1.993-0.172-0.24-2.775-1.993 0.172zm0.24 2.775 0.307 3.551 1.993-0.172-0.307-3.551-1.993 0.172zm1.294 4.465 7.514 0.071 0.019-2-7.514-0.071-0.019 2zm-92.589 219.31 5.3908-0.161-0.0598-1.999-5.3908 0.161 0.0598 1.999zm5.3908-0.161 4.717-0.141-0.0598-1.999-4.717 0.141 0.0598 1.999zm4.717-0.141 4.8855-0.146-0.0598-1.999-4.8855 0.146 0.0598 1.999zm4.1415-1.846-4.7451 4.841 1.4283 1.4 4.745-4.841-1.4282-1.4zm-3.0314 5.511-0.1404-4.695-1.9991 0.06 0.1404 4.695 1.9991-0.06zm-0.1404-4.695-0.1356-4.532-1.9991 0.06 0.1356 4.532 1.9991-0.06zm-1.8493-5.202-4.5814 4.673 1.4282 1.401 4.5815-4.674-1.4283-1.4zm-4.5814 4.673-3.9269 4.006 1.4282 1.4 3.9269-4.005-1.4282-1.401zm110.08-252.5 9.995 4.566 0.831-1.819-9.995-4.567-0.831 1.82zm11.318 3.236-3.44-7.42-1.815 0.841 3.441 7.42 1.814-0.841zm-3.44-7.42-3.242-6.992-1.815 0.841 3.242 6.992 1.815-0.841zm-3.582 2.213 2.946-0.83-0.543-1.925-2.945 0.83 0.542 1.925zm2.946-0.83 2.775-0.782-0.542-1.925-2.776 0.782 0.543 1.925zm20.657-6.453-3.795-6.803-1.747 0.975 3.795 6.802 1.747-0.974zm-3.795-6.803-2.225-3.987-1.747 0.975 2.225 3.987 1.747-0.975zm-2.225-3.987-1.432-2.567-1.747 0.974 1.432 2.568 1.747-0.975zm-3.807 2.898 3.343-1.498-0.818-1.825-3.343 1.498 0.818 1.825zm3.343-1.498 2.191-0.982-0.818-1.826-2.191 0.983 0.818 1.825zm-1.035 7.3 3.553-3.514-1.406-1.422-3.553 3.514 1.406 1.422zm3.553-3.514 3.851-3.809-1.407-1.422-3.85 3.809 1.406 1.422zm13.697-8.437 2.144-3.183-1.659-1.118-2.144 3.184 1.659 1.117zm2.144-3.183 2.509-3.726-1.659-1.117-2.509 3.725 1.659 1.118zm1.358-3.337 3.199 1.086 0.643-1.894-3.199-1.086-0.643 1.894zm4.417-0.304-4.375-8.86-1.793 0.886 4.375 8.859 1.793-0.885zm-2.614 8.286c-0.119-0.161-0.5-0.82-1.084-1.887-0.562-1.029-1.271-2.358-2.022-3.783l-1.769 0.932c0.753 1.429 1.467 2.768 2.036 3.81 0.549 1.004 1.01 1.818 1.233 2.12l1.606-1.192zm-3.106-5.67c-1.394-2.645-2.929-5.61-3.94-7.576l-1.779 0.914c1.013 1.971 2.552 4.942 3.95 7.594l1.769-0.932zm20.512-7.866-3.413-6.759-1.786 0.901 3.414 6.76 1.785-0.902zm6.432-4.878-2.952-2.795-1.375 1.452 2.952 2.796 1.375-1.453zm-10.648-0.435 7.098-0.638-0.179-1.992-7.098 0.638 0.179 1.992zm0.803-1.446-0.976-1.932-1.785 0.902 0.975 1.931 1.786-0.901zm-0.976-1.932-2.438-4.828-1.785 0.901 2.438 4.829 1.785-0.902zm7.869 1.018-4.883-4.623-1.375 1.452 4.883 4.623 1.375-1.452zm-4.883-4.623-3.294-3.118-1.375 1.452 3.294 3.118 1.375-1.452zm-3.156 4.748 3.19-3.33-1.444-1.384-3.19 3.33 1.444 1.384zm26.172-7.766-0.852-3.574-1.946 0.464 0.852 3.574 1.946-0.464zm-2.011-4.324-5.036 0.952 0.372 1.965 5.036-0.952-0.372-1.965zm-5.036 0.952-4.72 0.892 0.371 1.965 4.721-0.892-0.372-1.965zm-3.781 2.532 3.064-3.51-1.507-1.315-3.064 3.51 1.507 1.315zm3.064-3.51 3.269-3.744-1.507-1.316-3.269 3.745 1.507 1.315zm-5.095-5.648 3.497 5.525 1.69-1.069-3.497-5.525-1.69 1.069zm3.497 5.525 1.656 2.618 1.69-1.069-1.656-2.618-1.69 1.069zm1.656 2.618 2.868 4.533 1.691-1.07-2.869-4.532-1.69 1.069zm20.057-5.606-6.173-6.525-1.453 1.375 6.173 6.524 1.453-1.374zm-6.404-4.969 10.02-5.722-0.992-1.737-10.02 5.722 0.992 1.737zm8.573-6.282 2.745 8.482 1.903-0.616-2.745-8.482-1.903 0.616zm-8.255-1.123 4.218-2.409-0.991-1.737-4.219 2.409 0.992 1.737zm33.854-1.766-9.545 4.69 0.882 1.795 9.545-4.69-0.882-1.795zm-8.134 5.83 4.777-19.06-1.94-0.486-4.777 19.06 1.94 0.486zm5.51-7.067 0.967-3.866-1.94-0.486-0.967 3.866 1.94 0.486zm19.405-9.025-4.318 5.486 1.571 1.237 4.319-5.485-1.572-1.238zm-2.541 5.977-0.754-5.876-1.984 0.254 0.754 5.877 1.984-0.255zm-0.754-5.876-0.71-5.531-1.984 0.255 0.71 5.53 1.984-0.254zm-0.909-4.795 4.169-5.4326-1.587-1.2175-4.169 5.4331 1.587 1.217zm2.385-5.9006 0.88 6.1886 1.98-0.281-0.88-6.1891-1.98 0.2815zm0.88 6.1886 0.735 5.166 1.98-0.282-0.735-5.165-1.98 0.281zm-5.496 8.485 2.888-3.179-1.48-1.345-2.888 3.179 1.48 1.345zm2.888-3.179 4.338-4.774-1.48-1.345-4.338 4.774 1.48 1.345zm4.338-4.774 3.364-3.701-1.481-1.3454-3.363 3.7014 1.48 1.345zm21.453-7.8642-2.019 4.4082 1.818 0.832 2.019-4.4075-1.818-0.8327zm-2.019 4.4082-2.274 4.966 1.818 0.833 2.274-4.967-1.818-0.832zm4.816 2.702-3.223-3.016-1.367 1.46 3.223 3.017 1.367-1.461zm-3.223-3.016-7.466-6.9862-1.366 1.4604 7.465 6.9858 1.367-1.46zm-7.451-5.5401 3.42-3.3348-1.397-1.4319-3.419 3.3349 1.396 1.4318zm24.691 4.8871-2.817-12.248-1.949 0.4483 2.817 12.248 1.949-0.448zm-2.817-12.248-0.545-2.3705-1.949 0.4482 0.545 2.3706 1.949-0.4483zm-0.165-2.4578 0.545 2.3706 1.949-0.4482-0.545-2.3706-1.949 0.4482zm0.545 2.3706 2.816 12.248 1.949-0.4486-2.816-12.248-1.949 0.4482zm7.754 10.901-3.045-6.5794-1.815 0.84 3.045 6.5795 1.815-0.8401zm-2.969-5.9766 1.09-5.8667-1.966-0.3655-1.091 5.8666 1.967 0.3656zm1.09-5.8667 0.485-2.6074-1.966-0.3655-0.485 2.6074 1.966 0.3655zm-9.333 2.7637 2.328-0.5354-0.448-1.9491-2.329 0.5354 0.449 1.9491zm2.328-0.5354 2.328-0.5355-0.448-1.9491-2.328 0.5355 0.448 1.9491zm2.328-0.5355 3.918-0.901-0.448-1.9491-3.918 0.901 0.448 1.9491zm3.918-0.901 3.795-0.8727-0.448-1.9491-3.795 0.8727 0.448 1.9491zm17.579-6.7822-3.816 4.3484 1.504 1.3192 3.816-4.3484-1.504-1.3192zm-3.69 5.7878 3.17 2.5456 1.252-1.5594-3.17-2.5457-1.252 1.5595zm3.17 2.5457 2.477 1.9888 1.252-1.5595-2.477-1.9888-1.252 1.5595zm4.083 1.0071-0.881-4.2706-1.959 0.4038 0.881 4.2706 1.959-0.4038zm-2.68-4.642-1.596 2.2818 1.639 1.1466 1.596-2.2819-1.639-1.1465zm-1.596 2.2819-2.043 2.9207 1.638 1.1465 2.044-2.9207-1.639-1.1465zm-1.873 4.2548 5.718 4.8762 1.298-1.5218-5.718-4.8761-1.298 1.5217zm-211.74 108.78 4.238 3.336 1.237-1.572-4.238-3.335-1.237 1.571zm4.238 3.336 3.708 2.919 1.237-1.572-3.708-2.919-1.237 1.572zm3.708 2.919 3.841 3.023 1.237-1.572-3.841-3.023-1.237 1.572zm4.361 1.242-6.746 0.667 0.197 1.99 6.746-0.667-0.197-1.99zm-5.861 2.281 2.904-3.691-1.571-1.237-2.905 3.691 1.572 1.237zm2.904-3.691 2.805-3.563-1.572-1.237-2.804 3.563 1.571 1.237zm1.921-5.176-6.513 0.644 0.197 1.99 6.512-0.644-0.196-1.99zm-6.513 0.644-5.582 0.552 0.196 1.99 5.583-0.552-0.197-1.99zm249.66-123.22 4.669 9.9482 1.81-0.8496-4.668-9.9482-1.811 0.8496zm6.538 9.7895 2.176-7.884-1.928-0.5322-2.176 7.884 1.928 0.5322zm2.176-7.884 2.051-7.4292-1.928-0.5321-2.051 7.4291 1.928 0.5322zm-4.163-0.629 2.783 1.2724 0.832-1.819-2.783-1.2723-0.832 1.8189zm2.783 1.2724 2.623 1.1989 0.832-1.8189-2.623-1.199-0.832 1.819zm19.928 8.4417 1.506-7.6424-1.962-0.3867-1.507 7.6423 1.963 0.3868zm1.506-7.6424 0.883-4.4797-1.963-0.3867-0.882 4.4797 1.962 0.3867zm0.883-4.4796 0.568-2.8844-1.962-0.3867-0.569 2.8843 1.963 0.3868zm-4.778-0.2529 3.518 1.0199 0.557-1.9209-3.518-1.0199-0.557 1.9209zm3.518 1.0199 2.307 0.6687 0.557-1.9209-2.307-0.6687-0.557 1.9209zm-5.511 4.898 4.983-0.3817-0.153-1.9941-4.983 0.3817 0.153 1.9941zm4.983-0.3817 5.4-0.4136-0.153-1.9941-5.4 0.4136 0.153 1.9941zm15.902 2.4264 3.694-1.0407-0.542-1.9251-3.694 1.0407 0.542 1.9251zm3.694-1.0407 4.323-1.2177-0.542-1.9251-4.323 1.2177 0.542 1.9251zm3.195-1.666 1.737 2.8976 1.715-1.0284-1.737-2.8976-1.715 1.0284zm3.565 2.6257 2.395-9.5861-1.941-0.4847-2.395 9.5861 1.941 0.4847zm-7.354 4.6284c0.013-0.2007 0.149-0.9493 0.394-2.1408 0.237-1.1484 0.556-2.6202 0.906-4.1931l-1.953-0.4334c-0.35 1.5765-0.672 3.0598-0.912 4.2229-0.23 1.12-0.406 2.0393-0.431 2.4137l1.996 0.1307zm1.3-6.3339c0.647-2.9184 1.394-6.1724 1.896-8.3258l-1.948-0.4536c-0.502 2.1578-1.251 5.4188-1.901 8.346l1.953 0.4334zm20.73 7.2713 1.77-7.3631-1.945-0.4674-1.77 7.3631 1.945 0.4674zm8.06 0.4409-0.443-4.0417-1.988 0.2181 0.443 4.0417 1.988-0.2181zm-7.839-7.2202 5.826 4.105 1.152-1.6349-5.826-4.105-1.152 1.6349zm1.549-0.5838 0.505-2.1037-1.944-0.4674-0.506 2.1037 1.945 0.4674zm0.505-2.1037 1.264-5.2593-1.944-0.4674-1.264 5.2593 1.944 0.4674zm5.342 5.866-0.733-6.6843-1.988 0.2181 0.733 6.6843 1.988-0.2181zm-0.733-6.6843-0.494-4.508-1.989 0.2181 0.495 4.508 1.988-0.2181zm-5.478 1.5793 4.587-0.4756-0.206-1.9893-4.587 0.4755 0.206 1.9894zm24.982 11.008 1.662-3.2765-1.784-0.9048-1.662 3.2765 1.784 0.9048zm1.264-4.5984-4.456-2.5315-0.988 1.7389 4.456 2.5316 0.988-1.739zm-4.456-2.5315-4.177-2.3733-0.988 1.7389 4.177 2.3733 0.988-1.7389zm-4.522-0.515 4.607-0.6947-0.298-1.9776-4.607 0.6946 0.298 1.9777zm4.607-0.6947 4.915-0.7409-0.298-1.9777-4.915 0.741 0.298 1.9776zm-0.231-7.6025-0.908 6.4749 1.981 0.2777 0.907-6.4749-1.98-0.2777zm-0.908 6.4749-0.43 3.0679 1.98 0.2777 0.431-3.0679-1.981-0.2777zm-0.43 3.0679-0.745 5.3119 1.981 0.2777 0.744-5.3119-1.98-0.2777zm18.922 8.6994-0.487-8.9692-1.998 0.1085 0.488 8.9691 1.997-0.1084zm-1.67-7.932 11.343 2.1185 0.367-1.966-11.342-2.1185-0.368 1.966zm10.602 0.7549-3.394 8.2444 1.85 0.7613 3.393-8.2445-1.849-0.7612zm-5.57-6.1962 4.776 0.892 0.367-1.966-4.775-0.892-0.368 1.966zm26.959 20.553-10.312-2.598-0.488 1.94 10.312 2.598 0.488-1.94zm-9.973-0.815 15.972-11.445-1.165-1.6258-15.972 11.445 1.165 1.626zm8.773-1.825 3.238-2.3232-1.165-1.6251-3.239 2.3227 1.166 1.6256zm20.636 5.671-6.842 1.389 0.398 1.96 6.842-1.389-0.398-1.96zm-5.804 2.914 3.226-4.97-1.678-1.089-3.226 4.97 1.678 1.089zm3.226-4.97 3.036-4.6764-1.677-1.0891-3.037 4.6765 1.678 1.089zm2.409-4.244 6.693-1.4459-0.423-1.9549-6.693 1.4464 0.423 1.9544zm5.635-2.9564-3.332 5.2884 1.692 1.067 3.333-5.2892-1.693-1.0662zm-3.332 5.2884-2.781 4.415 1.692 1.066 2.781-4.414-1.692-1.067zm-9.68 2.915 4.258-0.555-0.258-1.984-4.259 0.556 0.259 1.983zm4.258-0.555 6.397-0.835-0.258-1.983-6.397 0.834 0.258 1.984zm6.397-0.835 4.96-0.647-0.259-1.983-4.959 0.647 0.258 1.983zm21.447 7.88-4.391 2.056 0.848 1.811 4.391-2.055-0.848-1.812zm-4.391 2.056-4.947 2.316 0.848 1.811 4.947-2.316-0.848-1.811zm1.924 5.176-0.506-4.385-1.987 0.229 0.507 4.386 1.986-0.23zm-0.506-4.385-1.174-10.157-1.987 0.23 1.174 10.156 1.987-0.229zm-2.098-9.045 4.765-0.331-0.139-1.995-4.765 0.331 0.139 1.995zm15.667 19.7 5.775-11.163-1.776-0.919-5.775 11.162 1.776 0.92zm5.775-11.163 1.118-2.16-1.776-0.919-1.118 2.16 1.776 0.919zm1.464-1.981-1.118 2.16 1.776 0.919 1.118-2.16-1.776-0.919zm-1.118 2.16-5.775 11.162 1.776 0.919 5.775-11.162-1.776-0.919zm-1.138 13.33 1.934-6.988-1.928-0.533-1.934 6.987 1.928 0.534zm1.602-6.479 4.626-3.768-1.263-1.551-4.627 3.768 1.264 1.551zm4.626-3.768 2.057-1.675-1.263-1.551-2.057 1.675 1.263 1.551zm-8.905-3.931 2.122 1.098 0.919-1.776-2.122-1.098-0.919 1.776zm2.122 1.098 2.122 1.098 0.919-1.776-2.122-1.098-0.919 1.776zm2.122 1.098 3.57 1.847 0.919-1.776-3.57-1.847-0.919 1.776zm3.57 1.847 3.459 1.79 0.919-1.777-3.459-1.789-0.919 1.776zm17.793 6.2-5.723 0.848 0.293 1.978 5.723-0.848-0.293-1.978zm-6.558 2.026 0.771 3.993 1.963-0.38-0.771-3.992-1.963 0.379zm0.771 3.993 0.602 3.119 1.964-0.38-0.603-3.119-1.963 0.38zm2.461 3.409 2.092-3.827-1.755-0.959-2.092 3.826 1.755 0.96zm0.96-5.274-2.693 0.708 0.508 1.934 2.693-0.707-0.508-1.935zm-2.693 0.708-3.448 0.905 0.508 1.935 3.448-0.906-0.508-1.934zm-4.181 2.033 1.206 7.417 1.974-0.321-1.206-7.417-1.974 0.321zm-231.84-54.021 1.074 5.2852 1.96-0.3982-1.074-5.2853-1.96 0.3983zm1.074 5.2852 0.94 4.6246 1.96-0.3982-0.94-4.6246-1.96 0.3982zm0.94 4.6246 0.973 4.7898 1.96-0.3983-0.973-4.7897-1.96 0.3982zm2.522 3.7681-5.576-3.8546-1.137 1.6452 5.575 3.8545 1.138-1.6451zm-5.946-2.052 4.603-0.9352-0.398-1.96-4.603 0.9352 0.398 1.96zm4.603-0.9352 4.443-0.9029-0.398-1.96-4.443 0.9029 0.398 1.96zm4.813-2.7055-5.383-3.7217-1.138 1.6452 5.384 3.7216 1.137-1.6451zm-5.383-3.7216-4.615-3.19-1.137 1.6451 4.614 3.19 1.138-1.6451zm268.02 66.41-2.827 10.62 1.933 0.514 2.827-10.619-1.933-0.515zm-1.294 11.701 6.739-4.635-1.134-1.648-6.738 4.635 1.133 1.648zm6.739-4.635 6.35-4.368-1.134-1.648-6.35 4.368 1.134 1.648zm-2.782-3.16 1.312 2.764 1.807-0.857-1.312-2.765-1.807 0.858zm1.312 2.764 1.236 2.606 1.807-0.858-1.236-2.605-1.807 0.857zm9.824 19.284 6.07-4.882-1.254-1.558-6.07 4.881 1.254 1.559zm6.07-4.882 3.558-2.861-1.254-1.559-3.558 2.862 1.254 1.558zm3.558-2.861 2.291-1.842-1.254-1.559-2.291 1.842 1.254 1.559zm-3.495-3.268 2.037 3.045 1.662-1.112-2.037-3.045-1.662 1.112zm2.037 3.045 1.336 1.996 1.662-1.112-1.336-1.996-1.662 1.112zm-7.37 0.204 4.06 2.913 1.166-1.624-4.06-2.914-1.166 1.625zm4.06 2.913 4.4 3.158 1.166-1.625-4.4-3.157-1.166 1.624zm10.613 12.089 3.497 1.58 0.824-1.822-3.498-1.581-0.823 1.823zm3.497 1.58 4.093 1.85 0.824-1.823-4.093-1.849-0.824 1.822zm3.518 0.78-0.535 3.336 1.975 0.316 0.534-3.336-1.974-0.316zm1.039 4.304 8.001-5.798-1.173-1.619-8.001 5.797 1.173 1.62zm-8.607-1.188c0.139-0.145 0.724-0.631 1.679-1.385 0.92-0.727 2.112-1.649 3.391-2.628l-1.216-1.588c-1.282 0.982-2.483 1.91-3.415 2.646-0.897 0.709-1.623 1.3-1.883 1.571l1.444 1.384zm5.07-4.013c2.374-1.817 5.039-3.828 6.808-5.154l-1.199-1.6c-1.773 1.329-4.444 3.343-6.825 5.166l1.216 1.588zm11.192 18.904 6.092-4.498-1.188-1.609-6.092 4.498 1.188 1.609zm5.887 5.524 2.261-3.38-1.663-1.112-2.261 3.38 1.663 1.112zm-1.356-10.571 1.819 6.891 1.933-0.511-1.818-6.891-1.934 0.511zm1.561 0.549 1.74-1.285-1.188-1.609-1.74 1.285 1.188 1.609zm1.74-1.285 4.352-3.213-1.188-1.609-4.352 3.213 1.188 1.609zm0.316 7.927 3.739-5.588-1.662-1.113-3.74 5.589 1.663 1.112zm3.739-5.588 2.522-3.77-1.662-1.112-2.522 3.769 1.662 1.113zm-5.21-2.316 3.818 2.587 1.122-1.655-3.818-2.587-1.122 1.655zm12.042 24.5 3.381-1.439-0.784-1.84-3.38 1.439 0.783 1.84zm3.927-2.706-1.783-4.805-1.875 0.695 1.782 4.805 1.876-0.695zm-1.783-4.805-1.671-4.505-1.875 0.696 1.671 4.504 1.875-0.695zm-3.131-3.304 3.975 2.432 1.044-1.705-3.974-2.433-1.045 1.706zm3.975 2.432 4.239 2.595 1.044-1.705-4.239-2.595-1.044 1.705zm4.714-5.969-4.861 4.373 1.338 1.487 4.86-4.373-1.337-1.487zm-4.861 4.373-2.303 2.072 1.337 1.487 2.304-2.072-1.338-1.487zm-2.303 2.072-3.988 3.587 1.337 1.487 3.988-3.587-1.337-1.487zm8.888 18.834 5.398-7.18-1.599-1.202-5.398 7.18 1.599 1.202zm3.826-7.146 7.32 8.919 1.546-1.269-7.32-8.919-1.546 1.269zm7.63 7.398-7.902 4.128 0.926 1.773 7.902-4.128-0.926-1.773zm-0.277-8.326 3.082 3.755 1.546-1.269-3.082-3.755-1.546 1.269zm7.414 33.079-6.222-8.623-1.622 1.17 6.222 8.623 1.622-1.17zm-7.11-7.041 19.59 1.515 0.155-1.995-19.591-1.514-0.154 1.994zm7.89 4.247 3.974 0.305 0.153-1.994-3.973-0.305-0.154 1.994zm12.149 17.618-6.131-3.338-0.957 1.757 6.132 3.338 0.956-1.757zm-6.318-1.503 5.667-1.729-0.584-1.913-5.666 1.729 0.583 1.913zm5.667-1.729 5.333-1.627-0.583-1.913-5.333 1.627 0.583 1.913zm4.575-1.699 6.054 3.199 0.934-1.768-6.054-3.199-0.934 1.768zm6.216 1.362-5.953 1.905 0.609 1.905 5.954-1.905-0.61-1.905zm-5.953 1.905-4.97 1.59 0.61 1.905 4.969-1.59-0.609-1.905zm-9.286-3.997 3.617 2.315 1.078-1.685-3.617-2.314-1.078 1.684zm3.617 2.315 5.434 3.477 1.078-1.685-5.434-3.477-1.078 1.685zm5.434 3.477 4.213 2.695 1.078-1.684-4.213-2.696-1.078 1.685zm11.348 19.831-4.683-1.251-0.517 1.932 4.684 1.251 0.516-1.932zm-4.683-1.251-5.278-1.41-0.516 1.932 5.277 1.41 0.517-1.932zm-1.858 5.2 2.434-3.683-1.669-1.102-2.433 3.683 1.668 1.102zm2.434-3.683 5.636-8.531-1.669-1.102-5.636 8.531 1.669 1.102zm4.213-8.274 3.861 2.813 1.177-1.617-3.861-2.812-1.177 1.616zm-0.68 25.161 11.603-4.829-0.769-1.846-11.603 4.829 0.769 1.846zm11.603-4.829 2.245-0.935-0.768-1.846-2.246 0.935 0.769 1.846zm2.395-0.576-2.246 0.935 0.769 1.847 2.245-0.935-0.768-1.847zm-2.246 0.935-11.603 4.83 0.769 1.846 11.603-4.829-0.769-1.847zm-9.447 9.472 5.976-4.105-1.132-1.648-5.977 4.105 1.133 1.648zm5.394-3.929 5.967 0.092 0.031-2-5.967-0.092-0.031 2zm5.967 0.092 2.652 0.041 0.03-2-2.651-0.041-0.031 2zm-4.289-8.739 0.918 2.206 1.846-0.769-0.918-2.205-1.846 0.768zm0.918 2.206 0.918 2.206 1.846-0.769-0.918-2.206-1.846 0.769zm0.918 2.206 1.545 3.711 1.846-0.768-1.545-3.712-1.846 0.769zm1.545 3.711 1.496 3.595 1.847-0.768-1.497-3.595-1.846 0.768zm9.632 16.194-4.926-3.033-1.049 1.703 4.927 3.033 1.048-1.703zm-6.324-2.668-1.978 3.552 1.747 0.973 1.978-3.552-1.747-0.973zm-1.978 3.552-1.546 2.775 1.747 0.973 1.546-2.775-1.747-0.973zm-0.309 4.193 4.062-1.583-0.726-1.864-4.063 1.584 0.727 1.863zm4.127-3.419-2.517-1.191-0.856 1.807 2.517 1.192 0.856-1.808zm-2.517-1.191-3.222-1.525-0.856 1.807 3.222 1.525 0.856-1.807zm-4.509-1.134-3.849 6.454 1.718 1.025 3.849-6.454-1.718-1.025zm-142.73-190.52-2.578 4.737 1.757 0.956 2.578-4.737-1.757-0.956zm-2.578 4.737-2.256 4.145 1.757 0.956 2.256-4.145-1.757-0.956zm-2.256 4.145-2.336 4.293 1.756 0.956 2.337-4.293-1.757-0.956zm-0.494 4.507-1.788-6.538-1.929 0.528 1.788 6.538 1.929-0.528zm-3.231-5.396 4.125 2.245 0.956-1.756-4.124-2.246-0.957 1.757zm4.125 2.245 3.983 2.168 0.956-1.757-3.983-2.167-0.956 1.756zm5.426 1.026-1.727-6.313-1.929 0.528 1.727 6.313 1.929-0.528zm-1.727-6.313-1.48-5.411-1.929 0.528 1.48 5.411 1.929-0.528z"/>
</svg>
