<svg viewBox="0 0 920 920" fill="none" xmlns="http://www.w3.org/2000/svg">
    <g clip-path="url(#clip0_576_3043)">
        <rect width="920" height="920" fill="white"/>
        <path fill-rule="evenodd" clip-rule="evenodd" d="M208.696 471.934L197 460.238L208.451 448.787L169.928 330.225L460 119.476L750.072 330.226L711.549 448.787L723 460.238L711.304 471.934L750.072 591.25L460 802L169.928 591.25L208.696 471.934ZM710.51 472.728L748.897 590.868L639.577 670.293L703.702 472.94L707 476.238L710.51 472.728ZM702.908 472.146L691 460.238L702.663 448.575L638.548 251.25L281.452 251.25L217.337 448.575L229 460.238L217.092 472.146L281.452 670.226L638.548 670.226L702.908 472.146ZM216.298 472.94L213 476.238L209.49 472.728L171.103 590.868L280.422 670.293L216.298 472.94ZM710.756 447.994L748.897 330.608L639.578 251.183L703.456 447.781L707 444.238L710.756 447.994ZM209.244 447.994L213 444.238L216.544 447.781L280.423 251.182L171.103 330.607L209.244 447.994ZM460 800.764L638.294 671.226L281.706 671.226L460 800.764ZM460 120.712L638.294 250.25L281.706 250.25L460 120.712ZM227.586 460.238L213 445.652L198.414 460.238L213 474.824L227.586 460.238ZM721.586 460.238L707 445.652L692.414 460.238L707 474.824L721.586 460.238Z" fill="#999999"/>
        <circle cx="460" cy="460" r="363" fill="#808080" fill-opacity="0.1" stroke="#212121" stroke-width="8"/>
        <circle cx="460" cy="460" r="397" stroke="#212121" stroke-width="2" stroke-dasharray="4 4"/>
        <circle cx="460" cy="460" r="353.119" transform="rotate(4.88907 460 460)" stroke="#212121" stroke-width="20" stroke-dasharray="2 60 2 25 2 45"/>
        <circle cx="460.068" cy="460.068" r="380.697" transform="rotate(50.7456 460.068 460.068)" stroke="#212121" stroke-width="10" stroke-dasharray="1 60 2 25 2 45"/>
        <circle cx="459.218" cy="459.621" r="358.567" transform="rotate(26.5639 459.218 459.621)" stroke="#212121" stroke-width="10" stroke-dasharray="2 11 2 205 2 74"/>
        <circle cx="460" cy="460" r="376" stroke="#212121" stroke-width="2" stroke-dasharray="800 200 30 40"/>
        <circle cx="460.343" cy="459.974" r="342.999" transform="rotate(14.665 460.343 459.974)" stroke="#212121" stroke-width="2" stroke-dasharray="25 20 200 80 5 40"/>
        <circle cx="460.001" cy="460" r="421.312" transform="rotate(-13.4516 460.001 460)" stroke="#212121" stroke-width="2" stroke-dasharray="5 35 60 4 10 65"/>
        <circle cx="459.999" cy="460" r="421.312" transform="rotate(105 459.999 460)" stroke="#212121" stroke-width="2" stroke-dasharray="32 50 4 95 20 60"/>
        <path d="M460.01 910L456 897.013L459 891.766V862.999C404.723 862.867 352.964 852.005 305.736 832.42L306.502 830.572C353.782 850.178 405.626 861 460 861C514.374 861 566.218 850.178 613.498 830.572L614.264 832.42C567.036 852.005 515.277 862.867 461 862.999V891.74L464 897.013L460.01 910Z" fill="#212121"/>
        <path d="M891.74 459H862.999C862.867 404.723 852.005 352.964 832.42 305.736L830.572 306.502C850.178 353.782 861 405.626 861 460C861 514.374 850.178 566.218 830.572 613.498L832.42 614.264C852.005 567.036 862.867 515.277 862.999 461H891.766L897.013 464L910 459.99L897.013 456L891.74 459Z" fill="#212121"/>
        <path d="M57.0013 461C57.1331 515.277 67.9955 567.035 87.5803 614.264L89.4277 613.498C69.8217 566.218 59.0001 514.374 59.0001 460C59.0001 405.626 69.8217 353.782 89.4277 306.502L87.5803 305.736C67.9956 352.964 57.1331 404.723 57.0013 459L28.2336 459L22.987 456L10 460.01L22.987 464L28.26 461L57.0013 461Z" fill="#212121"/>
        <path d="M461 57.0013C515.278 57.1332 567.036 67.9956 614.264 87.5803L613.498 89.4277C566.218 69.8217 514.374 59 460 59C405.626 59 353.782 69.8217 306.502 89.4277L305.736 87.5803C352.965 67.9954 404.723 57.133 459 57.0013V28.26L456 22.987L459.99 10L464 22.987L461 28.2336V57.0013Z" fill="#212121"/>
    </g>
    <defs>
        <clipPath id="clip0_576_3043">
            <rect width="920" height="920" fill="white"/>
        </clipPath>
    </defs>
</svg>
